<?xml version="1.0" encoding="utf-8"?>
<!-- 
Icons made by <a href="https://www.freepik.com/?__hstc=57440181.f24051fb38e45c021c76eb01ffc1c474.1556123685286.1556123685286.1562195457453.2&__hssc=57440181.3.1562195457453&__hsfp=770081927" title="Freepik">Freepik</a> from <a href="https://www.flaticon.com/"                 title="Flaticon">www.flaticon.com</a> is licensed by <a href="http://creativecommons.org/licenses/by/3.0/" title="Creative Commons BY 3.0" target="_blank">CC 3.0 BY</a>
-->
<svg version="1.1" id="Capa_1" xmlns="http://www.w3.org/2000/svg" xmlns:xlink="http://www.w3.org/1999/xlink" x="0px" y="0px"
	 viewBox="-113 204.8 384.2 384.2" style="enable-background:new -113 204.8 384.2 384.2;" xml:space="preserve">
	<path d="M256.2,527.4h-70.3l65.9-65.9c6.3-6.3,6.3-16.5,0-22.7L54.1,241.1c-6.3-6.3-16.5-6.3-22.7,0L-93.5,366.1
		c-6.3,6.3-6.3,16.5,0,22.7L45,527.4H-98c-8.3,0-15,6.7-15,15c0,8.3,6.7,15,15,15h354.2c8.3,0,15-6.7,15-15
		C271.2,534.1,264.5,527.4,256.2,527.4z M191.2,423.7L90.6,402.3L69.2,301.7L191.2,423.7z M-59.4,377.4l91.6-91.6l28.5,133.7
		c0.7,3.2,2.3,6,4.5,8.2c2.2,2.2,5,3.8,8.2,4.5L207,460.7l-66.6,66.6H90.5L-59.4,377.4z"/>
</svg>
