<?xml version="1.0" encoding="utf-8"?>
<!-- Generator: Adobe Illustrator 23.0.1, SVG Export Plug-In . SVG Version: 6.00 Build 0)  -->
<svg version="1.1" id="logo-asbestos" xmlns="http://www.w3.org/2000/svg" xmlns:xlink="http://www.w3.org/1999/xlink" x="0px" y="0px"
	 viewBox="0 0 325 125" style="enable-background:new 0 0 325 125;" xml:space="preserve">
<style type="text/css">
  #logo-asbestos{
    background-color: #414141;
  }
	#logo-asbestos .st0{fill:#FFFFFF;}
	#logo-asbestos .st1{fill:#009ADC;}
	#logo-asbestos .st2{fill:#F18A14;}
	#logo-asbestos .st3{fill:#3A603C;}
	#logo-asbestos .st4{fill:#F08800;}
	#logo-asbestos .st5{fill:#3B5F36;}
	#logo-asbestos .st6{fill:#0095D9;}
	#logo-asbestos .st7{fill:#40BFEF;}
	#logo-asbestos .st8{fill:#47C0F0;}
	#logo-asbestos .st9{fill:#1D5D3D;}
	#logo-asbestos .st10{fill:#767036;}
	#logo-asbestos .st11{fill:#EF8000;}
	#logo-asbestos .st12{fill:#3E5A36;}
	#logo-asbestos .st13{fill:#E74B0F;}
	#logo-asbestos .st14{fill:#255837;}
	#logo-asbestos .st15{fill:#0075BB;}
	#logo-asbestos .st16{fill:#0069B3;}
	#logo-asbestos .st17{fill:#274939;}
	#logo-asbestos .st18{fill:#0077BD;}
	#logo-asbestos .st19{fill:#3E4E39;}
	#logo-asbestos .st20{fill:#0073BB;}
	#logo-asbestos .st21{fill:#2B4D39;}
	#logo-asbestos .st22{fill:#244839;}
	#logo-asbestos .st23{fill:#2A4534;}
	#logo-asbestos .st24{fill:#FCC100;}
	#logo-asbestos .st25{fill:#EC7004;}
	#logo-asbestos .st26{fill:#785F2F;}
	#logo-asbestos .st27{fill:#425335;}
	#logo-asbestos .st28{fill:#EB6807;}
	#logo-asbestos .st29{fill:#FCC000;}
	#logo-asbestos .st30{fill:#FFE600;}
	#logo-asbestos .st31{fill:#EC8500;}
	#logo-asbestos .st32{fill:#EC8400;}
	#logo-asbestos .st33{fill:#F7BB00;}
	#logo-asbestos .st34{fill:#E86D08;}
	#logo-asbestos .st35{fill:#207039;}
	#logo-asbestos .st36{fill:#67AF2E;}
	#logo-asbestos .st37{fill:#756D30;}
	#logo-asbestos .st38{fill:#76B72A;}
	#logo-asbestos .st39{fill:#008D3D;}
	#logo-asbestos .st40{fill:#006F3A;}
	#logo-asbestos .st41{fill:#00663A;}
	#logo-asbestos .st42{fill:#205D38;}
	#logo-asbestos .st43{fill:#008B3E;}
	#logo-asbestos .st44{fill:#70B52C;}
	#logo-asbestos .st45{fill:#7B712F;}
	#logo-asbestos .st46{fill:#0B5C38;}
	#logo-asbestos .st47{fill:#254835;}
	#logo-asbestos .st48{fill:#006E3B;}
	#logo-asbestos .st49{fill:#244C35;}
	#logo-asbestos .st50{fill:#234835;}
	#logo-asbestos .st51{fill:#6EB12D;}
	#logo-asbestos .st52{fill:#006D3A;}
	#logo-asbestos .st53{fill:#7A6E2F;}
	#logo-asbestos .st54{fill:#C7D300;}
	#logo-asbestos .st55{fill:#BFCC00;}
	#logo-asbestos .st56{fill:#B77A1F;}
	#logo-asbestos .st57{fill:#BBA716;}
	#logo-asbestos .st58{fill:#B46521;}
	#logo-asbestos .st59{fill:#046E3A;}
	#logo-asbestos .st60{fill:#41AA34;}
	#logo-asbestos .st61{fill:#008C3E;}
	#logo-asbestos .st62{fill:#006F3B;}
	#logo-asbestos .st63{fill:#40A735;}
	#logo-asbestos .st64{fill:#5D6A33;}
	#logo-asbestos .st65{fill:#518B35;}
	#logo-asbestos .st66{fill:#615A32;}
</style>
<path class="st0" d="M6.2,112.9H3.5c-0.2,0-0.2,0.1-0.3,0.2l-1,5.8c0,0.2-0.1,0.2-0.3,0.2H0.7c-0.2,0-0.2-0.1-0.2-0.2l2.4-13.3
	c0-0.2,0.1-0.2,0.3-0.2h4.4c2.4,0,3.7,1.5,3.3,3.9C10.4,111.3,8.6,112.9,6.2,112.9 M7.3,106.9H4.7c-0.2,0-0.2,0.1-0.3,0.2l-0.7,4.1
	c0,0.2,0,0.2,0.2,0.2h2.7c1.2,0,2.4-1,2.6-2.2l0.1-0.2C9.4,107.8,8.5,106.9,7.3,106.9"/>
<path class="st0" d="M18.7,115.7c-0.4,2.1-2.2,3.6-4.6,3.6s-3.6-1.5-3.3-3.6l0.5-2.9c0.4-2.1,2.2-3.6,4.6-3.6s3.7,1.5,3.3,3.6
	L18.7,115.7z M15.6,110.6c-1.4,0-2.4,1-2.6,2.2l-0.5,3c-0.2,1.1,0.5,2,1.8,2c1.4,0,2.4-1,2.6-2.1l0.5-3
	C17.7,111.6,16.9,110.6,15.6,110.6"/>
<path class="st0" d="M28.8,118.9c0,0.2-0.1,0.2-0.3,0.2h-1.1c-0.2,0-0.2-0.1-0.2-0.2l0.1-0.6c0-0.2-0.2-0.3-0.4-0.2
	c-0.7,0.7-1.5,1-2.2,1c-2.4,0-3.7-1.5-3.3-3.7l1.1-5.9c0-0.2,0.1-0.2,0.3-0.2h1.3c0.2,0,0.2,0.1,0.2,0.2l-1.1,5.9
	c-0.2,1.2,0.6,2.1,1.8,2.1c1.2,0,2.4-0.9,2.6-2.1l1.1-5.9c0-0.2,0.1-0.2,0.3-0.2h1.3c0.1,0,0.2,0.1,0.2,0.2L28.8,118.9z"/>
<path class="st0" d="M38.1,111c0,0.2-0.2,0.3-0.3,0.2c-0.1,0-0.2-0.1-0.4-0.1c-1.2,0-2.3,0.8-2.6,2.1l-1,5.7c0,0.2-0.1,0.2-0.3,0.2
	h-1.3c-0.2,0-0.2-0.1-0.2-0.2l1.7-9.3c0-0.2,0.1-0.2,0.3-0.2h1.1c0.2,0,0.2,0.1,0.2,0.2l-0.2,0.9c0,0.2,0.2,0.3,0.3,0.2
	c0.7-0.8,1.6-1.3,2.3-1.3h0.5c0.1,0,0.2,0.1,0.2,0.2L38.1,111z"/>
<path class="st0" d="M50,120.4c-0.4,2.2-2,3.9-4.7,3.9c-1.2,0-2.1-0.4-2.6-0.9c-0.3-0.3-0.5-0.7-0.7-1.1c0-0.1,0-0.2,0.2-0.3
	l1.3-0.6c0.1-0.1,0.2,0,0.3,0.1c0.3,0.8,1,1.2,1.8,1.2c1.2,0,2.4-0.9,2.6-2.2l0.4-2.2c0-0.2-0.2-0.3-0.4-0.2c-0.6,0.6-1.3,0.9-2,0.9
	c-2.4,0-3.7-1.5-3.3-3.7l1.1-5.9c0-0.2,0.1-0.2,0.3-0.2h1.3c0.2,0,0.2,0.1,0.2,0.2l-1.1,5.9c-0.2,1.2,0.6,2.2,1.8,2.2
	c1.4,0,2.4-1.1,2.6-2.2l1.1-5.9c0-0.2,0.1-0.2,0.3-0.2h1.3c0.2,0,0.2,0.1,0.2,0.2L50,120.4z"/>
<path class="st0" d="M61.7,119c0,0.1-0.1,0.1-0.2,0.1h-1.1c-0.1,0-0.2,0-0.2-0.1l-2.2-9.3c0-0.2,0.1-0.3,0.3-0.3h1.4
	c0.1,0,0.2,0,0.2,0.1l1.4,6.3c0,0.1,0.1,0.7,0.1,0.8h0.1c0.1-0.2,0.3-0.7,0.4-0.8l3.6-6.3c0-0.1,0.1-0.1,0.2-0.1h1.4
	c0.2,0,0.2,0.1,0.1,0.3L61.7,119z"/>
<path class="st0" d="M69.3,118.9c0,0.2-0.1,0.2-0.3,0.2h-1.3c-0.2,0-0.2-0.1-0.2-0.2l1.7-9.3c0-0.2,0.1-0.2,0.3-0.2h1.3
	c0.2,0,0.2,0.1,0.2,0.2L69.3,118.9z M70.4,107.3c-0.6,0-1-0.5-0.9-1.1s0.7-1.1,1.3-1.1c0.6,0,1,0.5,0.9,1.1
	C71.7,106.8,71.1,107.3,70.4,107.3"/>
<path class="st0" d="M76.5,119c-0.1,0.1-0.1,0.1-0.2,0.1h-1.1c-0.1,0-0.2,0-0.2-0.1l-2.2-9.3c0-0.2,0.1-0.3,0.3-0.3h1.4
	c0.1,0,0.2,0,0.2,0.1l1.4,6.3c0,0.1,0.1,0.7,0.1,0.8h0.1c0.1-0.2,0.3-0.7,0.4-0.8l3.6-6.3c0-0.1,0.1-0.1,0.2-0.1h1.4
	c0.2,0,0.2,0.1,0.1,0.3L76.5,119z"/>
<path class="st0" d="M88.3,111c-0.1,0.2-0.2,0.3-0.3,0.2c-0.1,0-0.2-0.1-0.4-0.1c-1.2,0-2.3,0.8-2.6,2.1l-1,5.7
	c0,0.2-0.1,0.2-0.3,0.2h-1.3c-0.2,0-0.2-0.1-0.2-0.2l1.7-9.3c0-0.2,0.1-0.2,0.3-0.2h1.1c0.2,0,0.2,0.1,0.2,0.2l-0.2,0.9
	c-0.1,0.2,0.2,0.3,0.3,0.2c0.7-0.8,1.6-1.3,2.3-1.3h0.5c0.1,0,0.2,0.1,0.2,0.2L88.3,111z"/>
<path class="st0" d="M96.9,114.2c0,0.2-0.1,0.2-0.2,0.2H91c-0.2,0-0.2,0.1-0.3,0.2l-0.2,1c-0.2,1.2,0.6,2.1,1.8,2.1
	c0.8,0,1.6-0.4,2.2-1.2c0.1-0.1,0.2-0.2,0.3-0.1l1.1,0.6c0.1,0.1,0.1,0.2,0.1,0.3c-0.4,0.5-0.8,1-1.4,1.3c-0.7,0.4-1.4,0.6-2.5,0.6
	c-2.4,0-3.7-1.5-3.3-3.7l0.5-2.9c0.4-2.1,2.2-3.6,4.6-3.6s3.7,1.5,3.3,3.6L96.9,114.2z M93.6,110.6c-1.4,0-2.3,1-2.6,2.2l-0.1,0.2
	c0,0.1,0.1,0.1,0.2,0.1H95c0.2,0,0.2-0.1,0.3-0.2v-0.3C95.6,111.6,94.8,110.6,93.6,110.6"/>
<path class="st0" d="M112.2,113l-0.4,2.3c-0.4,2.3-2.4,3.9-4.7,3.9c-0.4,0-1-0.2-1.4-0.4c0,0-0.1,0-0.2,0s-0.2,0.1-0.2,0.2l-0.9,4.9
	c0,0.2-0.1,0.2-0.3,0.2H102c-0.1,0-0.2-0.1-0.2-0.2s0.1-0.4,0.1-0.7l2.5-13.9c0-0.2,0.1-0.2,0.3-0.2h1.9c0.2,0,0.2,0.1,0.2,0.2
	c0,0.2,0,0.2,0.1,0.2s0.4-0.1,0.5-0.2c0.4-0.2,0.9-0.3,1.2-0.3c2.2,0,3.5,1.2,3.5,3.1C112.2,112.4,112.2,112.7,112.2,113
	 M108.3,111.4c-0.9,0-1.7,0.7-1.9,1.6l-0.4,1.9c-0.1,0.2-0.1,0.5-0.1,0.7c0,0.8,0.6,1.3,1.4,1.3c0.9,0,1.7-0.7,1.8-1.6l0.4-2
	c0.1-0.2,0.1-0.5,0.1-0.6C109.6,112,109.1,111.4,108.3,111.4"/>
<path class="st0" d="M118.5,106l-2.3,12.9c0,0.2-0.1,0.2-0.3,0.2h-2.1c-0.1,0-0.2,0-0.2-0.2c0-0.1,0.1-0.3,0.1-0.6l2.3-12.8
	c0-0.2,0.1-0.2,0.3-0.2h2.1c0.1,0,0.2,0,0.2,0.2C118.6,105.6,118.6,105.8,118.5,106"/>
<path class="st0" d="M128.1,113.2l-0.2,1.3c0,0.2-0.1,0.2-0.3,0.2h-5.3c-0.2,0-0.2,0.1-0.2,0.2c-0.1,0.2-0.1,0.6-0.1,0.8
	c0,0.7,0.6,1.3,1.4,1.3c0.6,0,1.2-0.4,1.8-1.3c0.1-0.1,0.1-0.1,0.2-0.1s0.2,0.1,0.4,0.2l1.5,0.8c0.1,0.1,0.1,0.1,0.1,0.2
	s-0.3,0.5-0.5,0.7c-0.9,1.1-2,1.9-3.9,1.9c-2.2,0-3.6-1.2-3.6-3.1c0-0.2,0-0.6,0.1-0.8l0.5-2.7c0.3-1.8,2.3-3.9,4.9-3.9
	c2.3,0,3.5,1.7,3.5,3.3C128.2,112.5,128.2,112.9,128.1,113.2 M124.3,111.2c-1.2,0-1.8,1.1-1.8,1.3c0,0.1,0.1,0.2,0.2,0.2h2.7
	c0.2,0,0.3-0.1,0.3-0.3C125.6,111.9,125.2,111.2,124.3,111.2"/>
<path class="st0" d="M133.8,109.9l-1.6,9c0,0.2-0.1,0.2-0.3,0.2h-2.1c-0.1,0-0.2,0-0.2-0.2s0.1-0.3,0.1-0.7l1.6-9
	c0-0.2,0.1-0.2,0.3-0.2h2.1c0.1,0,0.2,0,0.2,0.2S133.8,109.7,133.8,109.9 M132.8,108.1c-0.7,0-1.2-0.6-1.2-1.2
	c0-0.9,0.9-1.7,1.8-1.7c0.7,0,1.2,0.6,1.2,1.2C134.6,107.2,133.7,108.1,132.8,108.1"/>
<path class="st0" d="M144.4,113l-1.1,5.9c0,0.2-0.1,0.2-0.3,0.2h-2.1c-0.1,0-0.2,0-0.2-0.2s0.1-0.3,0.1-0.6l0.9-4.9
	c0.1-0.3,0.1-0.6,0.1-0.8c0-0.7-0.5-1.3-1.3-1.3c-0.9,0-1.7,0.7-1.9,1.6l-1.1,5.9c0,0.2-0.1,0.2-0.3,0.2h-2.1c-0.1,0-0.2,0-0.2-0.2
	c0-0.1,0.1-0.4,0.1-0.7l1.6-9c0-0.2,0.1-0.2,0.3-0.2h1.9c0.1,0,0.2,0.1,0.2,0.2s0,0.2,0.1,0.2s0.3-0.1,0.4-0.2
	c0.4-0.2,0.9-0.3,1.3-0.3c2.2,0,3.5,1.2,3.5,3.1C144.5,112.4,144.4,112.7,144.4,113"/>
<path class="st0" d="M155.2,113.2l-0.2,1.3c0,0.2-0.1,0.2-0.3,0.2h-5.3c-0.2,0-0.2,0.1-0.2,0.2c-0.1,0.2-0.1,0.6-0.1,0.8
	c0,0.7,0.6,1.3,1.4,1.3c0.6,0,1.2-0.4,1.8-1.3c0.1-0.1,0.1-0.1,0.2-0.1c0.1,0,0.2,0.1,0.4,0.2l1.5,0.8c0.1,0.1,0.1,0.1,0.1,0.2
	s-0.3,0.5-0.5,0.7c-0.9,1.1-2,1.9-3.9,1.9c-2.2,0-3.6-1.2-3.6-3.1c0-0.2,0-0.6,0.1-0.8l0.5-2.7c0.3-1.8,2.4-3.9,4.9-3.9
	c2.3,0,3.5,1.7,3.5,3.3C155.4,112.5,155.3,112.9,155.2,113.2 M151.4,111.2c-1.2,0-1.8,1.1-1.8,1.3c0,0.1,0.1,0.2,0.2,0.2h2.7
	c0.2,0,0.3-0.1,0.3-0.3C152.8,111.9,152.4,111.2,151.4,111.2"/>
<path class="st0" d="M171,113l-1.1,5.9c0,0.2-0.1,0.2-0.3,0.2h-2.1c-0.1,0-0.2,0-0.2-0.2c0-0.1,0.1-0.4,0.1-0.7l0.9-5
	c0-0.2,0.1-0.4,0.1-0.6c0-0.7-0.5-1.3-1.1-1.3s-1.5,0.7-1.6,1.6l-1.1,5.9c0,0.2-0.1,0.2-0.3,0.2h-2.1c-0.1,0-0.2,0-0.2-0.2
	c0-0.1,0-0.2,0.1-0.4l0.9-5.3c0-0.2,0.1-0.4,0.1-0.6c0-0.7-0.5-1.3-1.1-1.3s-1.5,0.7-1.6,1.6l-1.1,5.9c0,0.2-0.1,0.2-0.3,0.2h-2.1
	c-0.1,0-0.2,0-0.2-0.2c0-0.1,0.1-0.3,0.1-0.4l1.6-9.2c0-0.2,0.1-0.2,0.3-0.2h1.9c0.2,0,0.2,0.1,0.2,0.2s0.1,0.2,0.2,0.2
	c0.1,0,0.4-0.2,0.5-0.2c0.5-0.2,0.9-0.3,1.2-0.3c0.8,0,1.5,0.2,2.1,0.7c0.1,0.1,0.1,0.2,0.2,0.2s0.2-0.1,0.3-0.2
	c0.7-0.5,1.6-0.7,2.5-0.7c2,0,3.3,1.2,3.3,3.1C171.1,112.4,171.1,112.7,171,113"/>
<path class="st0" d="M181.8,113.2l-0.2,1.3c0,0.2-0.1,0.2-0.3,0.2H176c-0.2,0-0.2,0.1-0.2,0.2c-0.1,0.2-0.1,0.6-0.1,0.8
	c0,0.7,0.6,1.3,1.4,1.3c0.6,0,1.2-0.4,1.8-1.3c0.1-0.1,0.1-0.1,0.2-0.1c0.1,0,0.2,0.1,0.4,0.2l1.5,0.8c0.1,0.1,0.1,0.1,0.1,0.2
	s-0.3,0.5-0.5,0.7c-0.9,1.1-2,1.9-3.9,1.9c-2.2,0-3.6-1.2-3.6-3.1c0-0.2,0-0.6,0.1-0.8l0.5-2.7c0.3-1.8,2.4-3.9,4.9-3.9
	c2.3,0,3.5,1.7,3.5,3.3C182,112.5,181.9,112.9,181.8,113.2 M178,111.2c-1.2,0-1.8,1.1-1.8,1.3c0,0.1,0.1,0.2,0.2,0.2h2.7
	c0.2,0,0.3-0.1,0.3-0.3C179.4,111.9,179,111.2,178,111.2"/>
<path class="st0" d="M192.7,113l-1.1,5.9c0,0.2-0.1,0.2-0.3,0.2h-2.1c-0.1,0-0.2,0-0.2-0.2s0.1-0.3,0.1-0.6l0.9-4.9
	c0.1-0.3,0.1-0.6,0.1-0.8c0-0.7-0.5-1.3-1.3-1.3c-0.9,0-1.7,0.7-1.9,1.6l-1.1,5.9c0,0.2-0.1,0.2-0.3,0.2h-2.1c-0.1,0-0.2,0-0.2-0.2
	c0-0.1,0.1-0.4,0.1-0.7l1.6-9c0-0.2,0.1-0.2,0.3-0.2h1.9c0.2,0,0.2,0.1,0.2,0.2s0,0.2,0.1,0.2s0.3-0.1,0.4-0.2
	c0.4-0.2,0.9-0.3,1.3-0.3c2.2,0,3.5,1.2,3.5,3.1C192.8,112.4,192.8,112.7,192.7,113"/>
<path class="st0" d="M200.9,109.7l-0.3,1.5c0,0.2-0.1,0.2-0.3,0.2h-1.5c-0.2,0-0.2,0.1-0.3,0.2L198,115c-0.1,0.3-0.1,0.6-0.1,0.7
	c0,0.7,0.5,1.2,1.5,1.3c0.1,0,0.2,0.1,0.2,0.2s-0.1,0.3-0.1,0.5l-0.3,1.5c0,0.2-0.1,0.2-0.3,0.2c-0.3,0-0.8-0.1-1.3-0.2
	c-1.5-0.4-2.3-1.5-2.3-2.9c0-0.2,0-0.5,0.1-0.8l0.6-3.2c0.1-0.4,0.1-0.7,0.1-0.8c0-0.1-0.1-0.2-0.2-0.2h-1.2c-0.1,0-0.2,0-0.2-0.2
	c0-0.1,0-0.2,0.1-0.6l0.1-0.7l3.1-2.7c0.1-0.1,0.2-0.1,0.3-0.1h1c0.1,0,0.2,0,0.2,0.2c0,0.1,0,0.3-0.1,0.5l-0.1,0.7
	c0,0.2-0.1,0.3-0.1,0.4s0.1,0.2,0.2,0.2h1.5c0.1,0,0.2,0,0.2,0.2C200.9,109.3,200.9,109.5,200.9,109.7"/>
<path class="st0" d="M1.3,24.1H201H1.3z"/>
<rect x="1.3" y="23.9" class="st0" width="199.6" height="0.5"/>
<path class="st0" d="M298.9,24.1h25.5H298.9z"/>
<rect x="298.9" y="23.9" class="st0" width="25.5" height="0.5"/>
<path class="st0" d="M1.3,84.2H201H1.3z"/>
<rect x="1.3" y="84" class="st0" width="199.6" height="0.5"/>
<path class="st0" d="M298.9,84.2h25.5H298.9z"/>
<rect x="298.9" y="84" class="st0" width="25.5" height="0.5"/>
<path class="st0" d="M22.1,73.6v-2.2h5.1l-3.5-9.5H9.9l-3.3,9.5h4.8v2.2H0v-2.1c2.9-0.3,3.3-0.7,4.2-2.6l12.8-35h2.5l13.3,37.2h3.1
	v2.3H22.1V73.6z M16.9,42.9l-6,16.2L22.7,59L16.9,42.9z"/>
<path class="st0" d="M59.7,43.6h-2.5c-0.3-4.4-2.1-7-7.8-7c-3.2,0-5.4,2.4-5.4,6.2c0,3.7,3.5,5.3,8.3,9.2c5.5,4.5,8.2,7.5,8.3,11.9
	c0,5-4.3,10.2-11.4,10.2c-4.4,0-6.8-1.3-10.8-0.3v-9.5h2.5c0.2,3.6,2.5,7.6,7.2,7.6c4.8,0,7.3-3.7,7.3-6.3c0-3.2-3.5-6.4-8.5-10.2
	c-4.9-3.7-8.2-7.3-8.2-11.3c0-5.9,4.7-9.6,10.6-9.7c1.8,0,5.1,0.4,7.1,0.4c0.8,0,1.1-0.3,1.5-0.5h1.9L59.7,43.6L59.7,43.6z"/>
<path class="st0" d="M83.9,33.9c9,0,12.3,4.8,12.3,9.7s-3.7,8.6-7.9,9.2c5.2,0,10.3,3.5,10.3,10c0,6.3-6.3,10.6-11.7,10.6H65.4v-2.3
	H69c2.3-0.2,2.8-0.8,2.7-3.3l-0.1-31.3h-5.3v-2.4C66.2,33.9,83.9,33.9,83.9,33.9z M83.6,36.3c-2.7,0-2.8,0-4.5,0.2
	c-1.8,0.2-2.2,1.2-2.2,3.1L77,52.1c0,0,2.6,0,3.8-0.1c5.5-0.5,9.7-3.2,9.6-8C90.4,39.8,88.1,36.3,83.6,36.3 M84.4,54.5
	c0,0-1.5,0-2.8,0.1c-1.5,0.1-3.2,0.2-4.6,0.2v15.7h5c6.6,0,10.8-1.9,10.8-7.9C92.8,57.2,88.9,54.5,84.4,54.5"/>
<path class="st0" d="M131.6,43.3h-2.9v-6h-11.5c-1.9,0-2.8,1.3-2.8,3.4l0.1,11.4h11.2v-4.7h2.7l0.1,12.4h-2.8V55h-9.2
	c-1.9,0-2,0.2-2,2.1v9.3c0,1.8-0.1,3.5,0.2,3.9c0.3,0.4,8.9,0.2,8.9,0.2c1.9,0.1,5.2-0.4,5.5-0.8c0.2-0.3,0.7-5.4,0.7-5.4h2.5v9
	h-29.5v-1.9l3.5-0.4c2.5-0.3,2.8-0.9,2.8-3.4L109,37h-5v-2.4h23.6c1.2,0,1.6-0.2,1.8-0.6h2.2L131.6,43.3L131.6,43.3z"/>
<path class="st0" d="M159,43.2h-2.3c-0.4-4.4-2.1-7-7.8-7c-3.2,0-5.4,2.4-5.4,6.1c0,3.7,3.4,5.3,8.3,9.2c5.5,4.5,8.2,7.5,8.3,11.9
	c0,5-4.3,10.2-11.4,10.2c-4.4,0-6.8-1.3-10.8-0.3v-9.5h2.5c0.1,3.6,2.5,7.6,7.2,7.6c4.8,0,7.3-3.7,7.3-6.4c0-3.2-3.5-6.4-8.4-10.2
	c-4.9-3.7-8.2-7.4-8.3-11.3c0-5.9,4.7-9.6,10.6-9.7c1.8,0,5.1,0.4,7.1,0.4c0.8,0,1.1-0.3,1.5-0.5h1.7L159,43.2L159,43.2z"/>
<path class="st0" d="M172.7,72.9v-2.1l3.8-0.3c2.3-0.2,2.7-0.9,2.7-3.5l-0.1-30c-2.7,0-6.7-0.1-9.4-0.1c-2.8,0-4.2,2-4,5l-2.4,0.5
	c0,0-0.6-2.2-0.6-3.3c0-4,3.5-5.1,7.6-5.2c3.4,0,8.1,0.1,11.4,0.2c3.6,0.1,7.9,0.2,11.4,0.2c1.7,0,2.9-0.2,3.6-0.8
	c0,0,0.4-1.3,0.5-3l2.8-0.4c0,0,0.4,1.5,0.4,2.6c0,4-3.8,4.5-7.9,4.5c-2.3,0-3.8,0-5.3,0c-2.2,0-2.8,1-2.8,3.3l0.1,29.7l7.7,0.6V73
	L172.7,72.9z"/>
<path class="st0" d="M323.9,42.6h-2.3c-0.4-4.4-2.1-7-7.8-7c-3.2,0-5.4,2.4-5.4,6.1c0,3.7,3.5,5.3,8.3,9.2c5.5,4.5,8.2,7.5,8.3,11.9
	c0,5-4.3,10.2-11.4,10.2c-4.4,0-6.8-1.3-10.8-0.3v-9.5h2.5c0.1,3.6,2.5,7.6,7.2,7.6c4.8,0,7.3-3.7,7.3-6.3c0-3.2-3.5-6.4-8.5-10.2
	c-4.9-3.7-8.2-7.4-8.2-11.3c0-5.9,4.7-9.6,10.6-9.7c1.8,0,5.1,0.5,7.1,0.4c0.8,0,1.1-0.3,1.5-0.5h1.7L323.9,42.6L323.9,42.6z"/>
<path class="st1" d="M256.3,49.9C256.4,49.9,256.4,49.9,256.3,49.9C256.4,49.9,256.4,49.9,256.3,49.9 M256.3,50
	C256.3,50,256.3,50,256.3,50C256.3,50,256.3,50,256.3,50 M256.2,50.1L256.2,50.1L256.2,50.1 M249.7,52.3L249.7,52.3L249.7,52.3
	 M250.1,52.3L250.1,52.3L250.1,52.3 M250,52.3c-0.1,0-0.2,0-0.3,0C249.8,52.3,249.9,52.3,250,52.3 M250,52.3L250,52.3L250,52.3
	L250,52.3 M249.8,52.4L249.8,52.4L249.8,52.4C249.7,52.3,249.7,52.3,249.8,52.4C249.7,52.3,249.7,52.4,249.8,52.4 M249.7,52.4
	L249.7,52.4C249.7,52.4,249.7,52.4,249.7,52.4L249.7,52.4 M249.6,52.4L249.6,52.4C249.6,52.4,249.6,52.4,249.6,52.4L249.6,52.4
	L249.6,52.4 M249.6,52.4L249.6,52.4 M283.5,88.1c0.3-2.3-0.4-5.6-2.3-10.5c-4.4-11.2-18.5-18.5-23.9-22c4.4,1.1,13.3,4.1,22.1,4.1
	c3.5,0,7.1-0.5,10.3-1.7c3.8-1.5,6.4-2.9,8-4.4c3.4,3.2,2.6,6.2,1.1,9.6c-2.2,4.8-5,5.4-6.5,8.6l-0.1,0.3c-1.5,3.2-0.1,5.8-2.3,10.6
	C288.5,85.7,287,87.9,283.5,88.1"/>
<path class="st2" d="M249.5,52.3L249.5,52.3C249.5,52.3,249.5,52.3,249.5,52.3L249.5,52.3C249.5,52.3,249.5,52.3,249.5,52.3
	 M249.6,52.3L249.6,52.3L249.6,52.3L249.6,52.3L249.6,52.3L249.6,52.3"/>
<polygon class="st3" points="249.6,52.3 249.6,52.3 249.6,52.3 "/>
<path class="st4" d="M253,44.3c1.9-6.4,6.5-21.1,2.1-32.2c-1.7-4.2-3.3-6.9-4.8-8.5c1.5-1.4,2.9-2,4.4-2c1.5,0,3,0.5,4.6,1.2
	c4.8,2.1,5.6,4.9,8.8,6.3l0.3,0.1c3.2,1.4,5.8,0,10.6,2.1c3.2,1.4,5.6,3,5.6,7h0h0h0h0h0h0h0h0h0h0h0h0h0c-2.2,0-5,0.6-8.9,2.1v0
	c-0.1,0-0.1,0.1-0.2,0.1h0l0,0c0,0,0,0-0.1,0c0,0,0,0,0,0h0c0,0,0,0,0,0h0c0,0,0,0,0,0h0c0,0,0,0,0,0
	C263.9,25.1,256.4,38.5,253,44.3 M249.6,52.2C249.6,52.2,249.6,52.2,249.6,52.2C249.5,52.2,249.5,52.2,249.6,52.2
	c0-0.1,0.1-0.2,0.1-0.2c0,0.1,0,0.2,0,0.2c0,0,0,0,0,0l0,0l0,0L249.6,52.2L249.6,52.2L249.6,52.2C249.6,52.2,249.6,52.2,249.6,52.2
	C249.6,52.2,249.6,52.1,249.6,52.2L249.6,52.2C249.6,52.2,249.6,52.2,249.6,52.2 M249.6,52.2L249.6,52.2L249.6,52.2L249.6,52.2
	 M249.6,52.2C249.6,52.2,249.6,52.2,249.6,52.2L249.6,52.2 M249.6,52.2C249.6,52.2,249.6,52.2,249.6,52.2L249.6,52.2L249.6,52.2
	L249.6,52.2 M249.7,52.3L249.7,52.3C249.7,52.3,249.7,52.3,249.7,52.3C249.7,52.2,249.7,52.2,249.7,52.3L249.7,52.3
	C249.7,52.2,249.7,52.3,249.7,52.3"/>
<path class="st5" d="M249.7,52.2L249.7,52.2L249.7,52.2L249.7,52.2 M249.7,52.3C249.6,52.3,249.6,52.2,249.7,52.3L249.7,52.3
	L249.7,52.3C249.7,52.2,249.7,52.2,249.7,52.3"/>
<path class="st3" d="M249.7,52.4L249.7,52.4C249.7,52.3,249.7,52.3,249.7,52.4L249.7,52.4"/>
<rect x="249.7" y="52.4" transform="matrix(0.979 -0.204 0.204 0.979 -5.4361 52.0223)" class="st6" width="0" height="0"/>
<path class="st7" d="M249.7,52.3C249.7,52.3,249.7,52.3,249.7,52.3L249.7,52.3L249.7,52.3L249.7,52.3L249.7,52.3
	C249.7,52.3,249.7,52.3,249.7,52.3C249.7,52.3,249.7,52.3,249.7,52.3L249.7,52.3 M297.8,53.7c-1.6-1.5-4.1-3.1-7.8-4.8
	c-4-1.8-8.5-2.5-13-2.5c-8,0-15.8,2.1-19.8,3c5.3-3.2,19.9-10.2,24.8-21.4c1.9-4.3,2.6-7.3,2.6-9.6c4.1,0.1,5.6,2.6,6.9,5.8
	c1.9,4.9,0.5,7.4,1.8,10.7l0.1,0.3c1.3,3.3,4.1,4.1,6,9C300.8,47.6,301.4,50.6,297.8,53.7"/>
<path class="st6" d="M249.7,52.3C249.7,52.3,249.7,52.3,249.7,52.3L249.7,52.3L249.7,52.3 M279.5,59.9c-8.8,0-17.7-3-22.1-4.2
	c-0.4-0.3-0.8-0.5-1.1-0.7c-3.3-2.4-5.6-2.6-6.5-2.6h-0.1l0,0c0,0,0,0,0-0.1c0,0,0,0,0,0c0.1,0,0.2,0,0.3,0h0.1h0.1h0
	c1,0,3.1-0.4,6-2.3c0,0,0,0,0,0c0,0,0.1-0.1,0.1-0.1c0,0,0,0,0,0h0c0,0,0,0,0,0c0,0,0,0,0,0c0.2-0.2,0.5-0.3,0.8-0.5
	c3.9-0.9,11.7-3.1,19.8-3.1c4.5,0,9,0.7,13,2.5c3.7,1.8,6.2,3.4,7.8,4.9c-1.7,1.4-4.2,2.9-8,4.4C286.5,59.4,283,59.9,279.5,59.9"/>
<polygon class="st8" points="249.7,52.3 249.7,52.3 249.7,52.3 249.7,52.3 249.7,52.3 249.7,52.3 "/>
<polygon class="st6" points="249.7,52.3 249.6,52.3 249.7,52.3 "/>
<path class="st8" d="M249.6,52.2L249.6,52.2L249.6,52.2z M249.6,52.3L249.6,52.3L249.6,52.3L249.6,52.3L249.6,52.3L249.6,52.3"/>
<polygon class="st6" points="249.6,52.3 249.6,52.3 249.6,52.3 "/>
<path class="st9" d="M249.7,52.3"/>
<path class="st10" d="M249.6,52.3L249.6,52.3L249.6,52.3 M249.6,52.3C249.6,52.3,249.7,52.3,249.6,52.3L249.6,52.3L249.6,52.3"/>
<path class="st9" d="M249.6,52.3L249.6,52.3L249.6,52.3L249.6,52.3L249.6,52.3L249.6,52.3C249.7,52.3,249.6,52.3,249.6,52.3
	L249.6,52.3"/>
<path class="st11" d="M249.3,53.1C249.3,53.1,249.2,53.1,249.3,53.1L249.3,53.1L249.3,53.1L249.3,53.1c0,0,0-0.1,0-0.1l0,0
	c0,0,0,0,0,0c0-0.1,0-0.1,0-0.2c0.6-0.7,1.9-2.6,3-6.5c0.1-0.4,0.3-0.9,0.4-1.5c3.4-5.9,11.2-19.8,22.6-24.4c0,0,0,0,0,0h0
	c0,0,0,0,0,0h0c0,0,0,0,0,0h0c0,0,0,0,0,0c0,0,0,0,0.1,0l0,0h0c0.1,0,0.1-0.1,0.2-0.1c4-1.5,6.9-2.2,9.2-2.2h0h0h0h0h0h0h0h0h0h0h0
	h0h0c0,2.4-0.8,5.5-2.7,9.9c-5,11.6-20,18.8-25.5,22.1c-0.4,0.1-0.7,0.2-1,0.2C251.8,51.2,249.9,52.6,249.3,53.1"/>
<path class="st12" d="M250,52.3L250,52.3c-0.1,0-0.2,0-0.3,0c0,0,0,0,0,0l0,0h0c0.6-0.5,2.4-1.8,6.6-2.7c0.3-0.1,0.6-0.1,0.9-0.2
	c-0.3,0.2-0.6,0.4-0.8,0.5c0,0,0,0,0,0c0,0,0,0,0,0h0c0,0,0,0,0,0c0,0-0.1,0.1-0.1,0.1c0,0,0,0,0,0c-2.9,1.8-4.9,2.2-6,2.2h0H250
	L250,52.3"/>
<path class="st13" d="M284.4,18.4L284.4,18.4L284.4,18.4 M284.5,18.4L284.5,18.4L284.5,18.4 M284.5,18.4L284.5,18.4L284.5,18.4
	 M284.5,18.4L284.5,18.4L284.5,18.4 M284.5,18.4L284.5,18.4L284.5,18.4 M284.6,18.4L284.6,18.4L284.6,18.4 M284.6,18.4L284.6,18.4
	L284.6,18.4 M284.6,18.4L284.6,18.4L284.6,18.4 M275.5,20.5c3.9-1.5,6.7-2.1,8.9-2.1C282.2,18.4,279.4,19,275.5,20.5 M275.3,20.6
	c0.1,0,0.1-0.1,0.2-0.1C275.4,20.5,275.4,20.5,275.3,20.6 M275.2,20.6L275.2,20.6L275.2,20.6 M275.1,20.6
	C275.1,20.6,275.2,20.6,275.1,20.6C275.2,20.6,275.1,20.6,275.1,20.6 M275.1,20.7C275.1,20.7,275.1,20.6,275.1,20.7
	C275.1,20.6,275.1,20.7,275.1,20.7 M275,20.7C275,20.7,275.1,20.7,275,20.7C275.1,20.7,275,20.7,275,20.7 M275,20.7
	C275,20.7,275,20.7,275,20.7C275,20.7,275,20.7,275,20.7"/>
<path class="st14" d="M256.4,49.9C256.4,49.9,256.4,49.9,256.4,49.9c0.3-0.2,0.5-0.4,0.9-0.5C256.9,49.6,256.6,49.7,256.4,49.9
	C256.4,49.9,256.4,49.9,256.4,49.9 M256.3,49.9L256.3,49.9L256.3,49.9 M256.2,50.1c0,0,0.1-0.1,0.1-0.1
	C256.2,50,256.2,50,256.2,50.1 M250.2,52.3c1,0,3.1-0.4,6-2.2C253.3,51.9,251.2,52.3,250.2,52.3 M250.1,52.3L250.1,52.3L250.1,52.3
	 M250,52.3L250,52.3"/>
<path class="st10" d="M249.6,52.2L249.6,52.2L249.6,52.2L249.6,52.2C249.6,52.2,249.6,52.2,249.6,52.2"/>
<path class="st10" d="M249.6,52.3L249.6,52.3L249.6,52.3C249.6,52.2,249.6,52.2,249.6,52.3L249.6,52.3 M249.7,52.3L249.7,52.3
	C249.7,52.3,249.7,52.3,249.7,52.3C249.7,52.3,249.7,52.3,249.7,52.3"/>
<path class="st9" d="M249.7,52.3L249.7,52.3L249.7,52.3L249.7,52.3C249.6,52.2,249.6,52.3,249.7,52.3
	C249.7,52.3,249.7,52.3,249.7,52.3"/>
<path class="st10" d="M249.6,52.2L249.6,52.2C249.6,52.1,249.6,52.2,249.6,52.2L249.6,52.2"/>
<path class="st15" d="M249.6,52.3C249.6,52.3,249.6,52.3,249.6,52.3C249.6,52.3,249.6,52.3,249.6,52.3L249.6,52.3
	C249.6,52.3,249.6,52.3,249.6,52.3 M253.4,103.1c-1.6,0-3.1-0.6-4.6-2.1c1.6-1.6,3.3-4.2,5.2-8.5c4.5-10.4,1-24.3-0.8-31.2
	c3.4,6.2,9.8,19.1,20,23.8c4.4,2,7.5,2.9,9.8,2.9c0.2,0,0.4,0,0.5,0c-0.4,3.5-2.7,4.9-5.8,6.1c-4.9,2-7.4,0.5-10.7,1.8l-0.3,0.1
	c-3.3,1.3-4.1,4.1-9,6C256.3,102.6,254.8,103.1,253.4,103.1"/>
<path class="st16" d="M283.2,88.2c-2.3,0-5.5-0.7-10-2.7c-10.4-4.8-16.8-18-20.2-24.3c-0.3-1-0.5-1.9-0.7-2.5
	c-1-4.2-2.4-6.1-2.9-6.6c0,0,0,0,0,0h0l0,0.1V52h0h0h0h0h0c0.6,0.6,2.3,2.2,6.5,3c0.4,0.1,0.8,0.2,1.2,0.3
	c5.5,3.5,19.8,10.8,24.3,22.1c1.9,4.9,2.5,8.4,2.2,10.8C283.5,88.2,283.3,88.2,283.2,88.2"/>
<polygon class="st17" points="249.8,52.4 249.7,52.4 249.7,52.4 "/>
<polygon class="st16" points="249.7,52.5 249.7,52.4 249.7,52.4 "/>
<path class="st16" d="M257.4,55.7c-0.5-0.1-0.9-0.2-1.2-0.3c-4.1-0.8-5.8-2.4-6.4-3c0,0,0,0,0,0l0,0h0.1c0.9,0,3.2,0.3,6.5,2.6
	C256.6,55.2,257,55.4,257.4,55.7"/>
<path class="st18" d="M249.6,52.4C249.6,52.4,249.6,52.4,249.6,52.4L249.6,52.4L249.6,52.4L249.6,52.4"/>
<path class="st16" d="M249.6,52.4L249.6,52.4L249.6,52.4C249.6,52.4,249.6,52.4,249.6,52.4 M249.6,52.4
	C249.6,52.4,249.6,52.4,249.6,52.4C249.6,52.4,249.6,52.4,249.6,52.4C249.6,52.4,249.6,52.4,249.6,52.4"/>
<path class="st18" d="M249.7,52.3L249.7,52.3L249.7,52.3L249.7,52.3C249.7,52.3,249.7,52.3,249.7,52.3
	C249.7,52.3,249.7,52.3,249.7,52.3"/>
<path class="st16" d="M249.7,52.3L249.7,52.3L249.7,52.3 M249.7,52.3L249.7,52.3C249.7,52.3,249.7,52.3,249.7,52.3
	C249.7,52.3,249.7,52.3,249.7,52.3C249.7,52.3,249.7,52.3,249.7,52.3"/>
<path class="st19" d="M249.7,52.3L249.7,52.3L249.7,52.3z"/>
<polyline class="st17" points="249.7,52.3 249.7,52.3 249.7,52.3 249.7,52.3 "/>
<path class="st20" d="M249.7,52.3C249.7,52.3,249.7,52.3,249.7,52.3L249.7,52.3C249.7,52.3,249.7,52.3,249.7,52.3"/>
<path class="st16" d="M249.7,52.3C249.7,52.3,249.7,52.3,249.7,52.3C249.7,52.3,249.7,52.3,249.7,52.3L249.7,52.3
	C249.7,52.3,249.7,52.3,249.7,52.3"/>
<polygon class="st20" points="249.7,52.3 249.7,52.3 249.7,52.3 "/>
<path class="st18" d="M249.6,52.4L249.6,52.4L249.6,52.4C249.6,52.4,249.6,52.4,249.6,52.4L249.6,52.4"/>
<path class="st16" d="M249.6,52.4L249.6,52.4L249.6,52.4C249.6,52.4,249.6,52.4,249.6,52.4"/>
<path class="st21" d="M249.7,52.3L249.7,52.3C249.6,52.3,249.6,52.3,249.7,52.3L249.7,52.3L249.7,52.3L249.7,52.3
	C249.7,52.3,249.7,52.3,249.7,52.3"/>
<path class="st22" d="M249.6,52.3L249.6,52.3L249.6,52.3C249.6,52.3,249.6,52.3,249.6,52.3 M249.7,52.3L249.7,52.3
	C249.7,52.3,249.7,52.3,249.7,52.3L249.7,52.3"/>
<path class="st23" d="M249.7,52.3L249.7,52.3L249.7,52.3C249.8,52.3,249.8,52.3,249.7,52.3"/>
<path class="st24" d="M249.5,52.2C249.5,52.2,249.5,52.2,249.5,52.2L249.5,52.2C249.6,52.2,249.6,52.2,249.5,52.2L249.5,52.2"/>
<path class="st25" d="M249.6,52.2C249.6,52.2,249.6,52.2,249.6,52.2C249.6,52.2,249.6,52.2,249.6,52.2L249.6,52.2"/>
<path class="st25" d="M249.6,52.2C249.6,52.2,249.6,52.2,249.6,52.2C249.6,52.2,249.6,52.2,249.6,52.2
	C249.6,52.2,249.6,52.2,249.6,52.2L249.6,52.2"/>
<path class="st26" d="M249.6,52.2L249.6,52.2L249.6,52.2C249.6,52.2,249.6,52.2,249.6,52.2L249.6,52.2"/>
<path class="st25" d="M249.7,52.2L249.7,52.2C249.7,52.2,249.7,52.2,249.7,52.2L249.7,52.2L249.7,52.2 M249.6,52.2L249.6,52.2
	L249.6,52.2L249.6,52.2L249.6,52.2"/>
<rect x="249.7" y="52.2" transform="matrix(0.438 -0.899 0.899 0.438 93.4011 253.7762)" class="st27" width="0" height="0"/>
<path class="st28" d="M249.7,52.2L249.7,52.2C249.7,52.2,249.7,52.2,249.7,52.2L249.7,52.2"/>
<path class="st29" d="M246.3,44c-3.3-5.8-10.1-19.5-20.9-24.2c-4.3-1.9-7.4-2.7-9.7-2.7c-0.1,0-0.1,0-0.2,0c0.2-4,2.6-5.4,5.8-6.7
	c4.9-2,7.4-0.5,10.7-1.8l0.3-0.1c3.3-1.3,4.1-4.1,9-6c1.6-0.6,3-1.1,4.4-1.1c1.6,0,3.1,0.6,4.6,2.2c-1.6,1.6-3.3,4.2-5.2,8.5
	C240.5,22.8,244.5,37.5,246.3,44"/>
<path class="st25" d="M249.6,52.1c0-0.9-0.1-3.2-2.4-6.6c-0.3-0.4-0.6-0.9-0.9-1.5c-1.8-6.5-6-21.2-1.2-32c1.9-4.2,3.6-6.9,5.3-8.5
	c1.6,1.6,3.3,4.3,5,8.5c4.5,11.1-0.2,25.8-2.2,32.2c-0.3,0.5-0.6,0.9-0.8,1.3c-2.1,3.3-2.5,5.5-2.6,6.4
	C249.7,52,249.6,52.1,249.6,52.1"/>
<path class="st28" d="M249.7,52c0.1-0.9,0.5-3.1,2.6-6.4c0.2-0.4,0.5-0.8,0.8-1.3c-0.2,0.5-0.3,1-0.4,1.4
	C251.6,49.5,250.3,51.3,249.7,52"/>
<path class="st30" d="M200.9,51.4c-2.9-3-2.2-5.8-0.8-9.1c2.1-4.8,4.9-5.5,6.3-8.8l0.1-0.3c1.4-3.2,0-5.8,2.1-10.6
	c1.4-3.1,2.9-5.5,6.8-5.6c-0.1,2.3,0.6,5.4,2.4,9.8c4.5,11.3,18.7,18.6,24,22c-4.4-1.1-13.3-4.1-22.1-4.1c-3.6,0-7.1,0.5-10.3,1.8
	C205.2,48.3,202.6,49.9,200.9,51.4 M249.5,52.2L249.5,52.2L249.5,52.2C249.5,52.2,249.5,52.2,249.5,52.2 M249.4,52.3
	C249.4,52.2,249.4,52.2,249.4,52.3C249.4,52.2,249.4,52.2,249.4,52.3L249.4,52.3C249.4,52.2,249.4,52.3,249.4,52.3 M249.5,52.3
	L249.5,52.3C249.5,52.3,249.5,52.3,249.5,52.3C249.5,52.3,249.5,52.3,249.5,52.3 M249.5,52.3C249.5,52.3,249.4,52.3,249.5,52.3
	L249.5,52.3L249.5,52.3 M249.5,52.4L249.5,52.4C249.5,52.3,249.5,52.3,249.5,52.4C249.5,52.3,249.5,52.4,249.5,52.4"/>
<path class="st30" d="M249.5,52.3C249.5,52.3,249.5,52.3,249.5,52.3L249.5,52.3L249.5,52.3L249.5,52.3"/>
<path class="st31" d="M249.5,52.3L249.5,52.3L249.5,52.3C249.5,52.3,249.5,52.3,249.5,52.3C249.5,52.3,249.5,52.3,249.5,52.3"/>
<path class="st30" d="M249.5,52.2C249.5,52.2,249.5,52.2,249.5,52.2C249.5,52.2,249.5,52.2,249.5,52.2L249.5,52.2L249.5,52.2"/>
<path class="st32" d="M249.5,52.2C249.5,52.2,249.5,52.2,249.5,52.2C249.5,52.2,249.5,52.2,249.5,52.2
	C249.5,52.2,249.5,52.2,249.5,52.2"/>
<path class="st33" d="M249.5,52.3L249.5,52.3C249.5,52.2,249.5,52.2,249.5,52.3L249.5,52.3C249.5,52.2,249.5,52.2,249.5,52.3
	L249.5,52.3 M249.4,52.3C249.4,52.3,249.4,52.3,249.4,52.3C249.4,52.3,249.4,52.2,249.4,52.3L249.4,52.3
	C249.4,52.3,249.4,52.3,249.4,52.3L249.4,52.3L249.4,52.3"/>
<path class="st34" d="M249.5,52.3L249.5,52.3C249.4,52.3,249.4,52.3,249.5,52.3L249.5,52.3"/>
<path class="st33" d="M249.4,52.3c-0.6-0.7-2.4-2.2-6.4-3c-0.3-0.1-0.7-0.2-1.1-0.3c-5.4-3.4-19.6-10.9-24.2-22.3
	c-1.8-4.5-2.5-7.6-2.4-10h0.2c2.3,0,5.4,0.8,9.8,2.7c10.8,4.8,17.6,18.6,21,24.5c0.2,0.7,0.3,1.2,0.4,1.7c1,4.1,2.3,5.9,2.8,6.5
	c0,0,0,0,0,0h0l0,0v0C249.5,52.3,249.5,52.3,249.4,52.3"/>
<path class="st34" d="M249.5,52.2c-0.5-0.6-1.9-2.4-2.8-6.5c-0.1-0.5-0.3-1-0.4-1.7c0.3,0.6,0.6,1.1,0.9,1.5
	C249.4,48.9,249.6,51.3,249.5,52.2C249.5,52.1,249.5,52.2,249.5,52.2"/>
<path class="st30" d="M249.5,52.4L249.5,52.4C249.5,52.3,249.5,52.3,249.5,52.4C249.5,52.3,249.6,52.3,249.5,52.4L249.5,52.4"/>
<polygon class="st35" points="249.6,52.4 249.5,52.4 249.5,52.4 249.6,52.4 "/>
<path class="st30" d="M249.6,52.3C249.6,52.3,249.6,52.3,249.6,52.3C249.6,52.3,249.6,52.2,249.6,52.3L249.6,52.3L249.6,52.3"/>
<path class="st31" d="M249.6,52.3L249.6,52.3C249.5,52.3,249.5,52.3,249.6,52.3C249.6,52.3,249.6,52.3,249.6,52.3L249.6,52.3"/>
<polygon class="st36" points="249.6,52.3 249.6,52.2 249.6,52.3 "/>
<path class="st32" d="M249.6,52.2C249.6,52.2,249.6,52.2,249.6,52.2L249.6,52.2L249.6,52.2L249.6,52.2"/>
<path class="st37" d="M249.6,52.3L249.6,52.3C249.6,52.2,249.6,52.2,249.6,52.3C249.6,52.2,249.6,52.2,249.6,52.3L249.6,52.3"/>
<polyline class="st32" points="249.6,52.2 249.6,52.2 249.6,52.2 249.6,52.2 "/>
<path class="st34" d="M249.6,52.2C249.6,52.2,249.6,52.2,249.6,52.2L249.6,52.2L249.6,52.2L249.6,52.2"/>
<path class="st38" d="M249.5,52.4C249.5,52.4,249.5,52.4,249.5,52.4L249.5,52.4C249.5,52.4,249.5,52.4,249.5,52.4L249.5,52.4
	 M249.6,52.4L249.6,52.4L249.6,52.4L249.6,52.4 M249.6,52.5L249.6,52.5C249.6,52.4,249.6,52.4,249.6,52.5
	C249.6,52.4,249.6,52.4,249.6,52.5C249.6,52.4,249.6,52.4,249.6,52.5 M249.4,52.6c0-0.1,0-0.1,0-0.2c0,0,0,0,0.1,0c0,0,0,0,0,0
	C249.5,52.5,249.5,52.5,249.4,52.6l0.1-0.2c0,0,0,0,0,0l0,0c0,0,0,0,0,0c0,0,0,0,0,0C249.5,52.5,249.5,52.5,249.4,52.6 M244.4,103
	c-1.5,0-3-0.5-4.6-1.2c-4.8-2.1-5.5-4.9-8.8-6.3l-0.3-0.1c-3.2-1.4-5.8,0-10.6-2.1c-3.2-1.4-5.6-2.9-5.6-6.9h0.2
	c2.3,0,5.3-0.7,9.4-2.4c10.9-4.3,18.4-17.6,21.8-23.4c-1.9,6.5-6.4,21-2.1,31.9c1.7,4.3,3.3,7,4.9,8.6
	C247.3,102.5,245.9,103,244.4,103"/>
<path class="st39" d="M249.6,52.4L249.6,52.4L249.6,52.4C249.6,52.4,249.6,52.4,249.6,52.4C249.6,52.4,249.6,52.4,249.6,52.4
	 M249.5,52.5L249.5,52.5C249.5,52.4,249.5,52.4,249.5,52.5C249.5,52.5,249.5,52.5,249.5,52.5"/>
<path class="st40" d="M248.8,101.1c-1.7-1.6-3.3-4.3-5.1-8.6c-4.6-11,0.2-25.5,2.2-31.9c0.4-0.6,0.7-1.1,0.9-1.5
	c2.2-3.4,2.6-5.6,2.7-6.5c0-0.1,0.1-0.1,0.1-0.1c0,0,0,0,0,0l0,0c0,0,0,0,0,0c0,0,0,0,0,0c-0.1,0.8-0.1,3.2,2.3,6.8
	c0.4,0.6,0.8,1.4,1.4,2.3c1.9,6.9,5.6,20.8,0.9,31.1C252.3,96.8,250.5,99.5,248.8,101.1"/>
<path class="st41" d="M253.2,61.5c-0.5-0.9-0.9-1.7-1.3-2.3c-2.3-3.6-2.3-6-2.2-6.8c0.5,0.5,1.9,2.3,2.9,6.5
	C252.7,59.6,252.9,60.5,253.2,61.5"/>
<path class="st40" d="M249.6,52.4L249.6,52.4C249.6,52.4,249.6,52.4,249.6,52.4L249.6,52.4L249.6,52.4 M249.5,52.4L249.5,52.4
	L249.5,52.4C249.5,52.4,249.5,52.4,249.5,52.4C249.5,52.4,249.5,52.4,249.5,52.4"/>
<path class="st41" d="M249.6,52.4L249.6,52.4L249.6,52.4C249.6,52.4,249.6,52.4,249.6,52.4C249.6,52.4,249.6,52.4,249.6,52.4"/>
<path class="st39" d="M249.7,52.4L249.7,52.4 M249.7,52.4L249.7,52.4L249.7,52.4C249.8,52.4,249.8,52.4,249.7,52.4L249.7,52.4
	 M249.7,52.4C249.7,52.4,249.7,52.4,249.7,52.4L249.7,52.4L249.7,52.4L249.7,52.4"/>
<polygon class="st42" points="249.7,52.4 249.7,52.4 249.7,52.3 249.7,52.4 249.7,52.4 "/>
<path class="st43" d="M249.7,52.4L249.7,52.4C249.7,52.4,249.7,52.4,249.7,52.4L249.7,52.4L249.7,52.4"/>
<path class="st43" d="M249.8,52.4C249.8,52.4,249.8,52.4,249.8,52.4L249.8,52.4L249.8,52.4"/>
<polygon class="st44" points="249.6,52.4 249.6,52.4 249.6,52.3 249.6,52.3 249.6,52.4 "/>
<polygon class="st39" points="249.6,52.4 249.6,52.3 249.6,52.3 "/>
<polygon class="st45" points="249.6,52.3 249.6,52.3 249.6,52.3 249.6,52.3 "/>
<polygon class="st42" points="249.6,52.3 249.6,52.3 249.6,52.3 249.6,52.3 249.6,52.3 "/>
<path class="st46" d="M249.7,52.4L249.7,52.4L249.7,52.4C249.7,52.4,249.7,52.4,249.7,52.4L249.7,52.4"/>
<polygon class="st46" points="249.6,52.3 249.6,52.3 249.6,52.3 "/>
<path class="st41" d="M249.7,52.4L249.7,52.4C249.7,52.4,249.7,52.4,249.7,52.4L249.7,52.4 M249.8,52.4L249.8,52.4L249.8,52.4
	L249.8,52.4C249.8,52.4,249.8,52.4,249.8,52.4"/>
<polygon class="st47" points="249.8,52.4 249.7,52.4 249.7,52.4 249.7,52.4 "/>
<path class="st41" d="M249.8,52.4C249.8,52.4,249.8,52.4,249.8,52.4C249.8,52.4,249.8,52.4,249.8,52.4L249.8,52.4L249.8,52.4"/>
<path class="st40" d="M249.6,52.4C249.6,52.4,249.6,52.4,249.6,52.4L249.6,52.4L249.6,52.4 M249.6,52.4L249.6,52.4L249.6,52.4
	L249.6,52.4 M249.6,52.4L249.6,52.4C249.6,52.4,249.6,52.4,249.6,52.4C249.6,52.4,249.6,52.4,249.6,52.4"/>
<path class="st41" d="M249.6,52.4C249.6,52.4,249.6,52.4,249.6,52.4C249.6,52.4,249.6,52.4,249.6,52.4L249.6,52.4L249.6,52.4
	L249.6,52.4L249.6,52.4L249.6,52.4C249.6,52.4,249.6,52.4,249.6,52.4 M249.7,52.4L249.7,52.4C249.6,52.4,249.6,52.4,249.7,52.4
	L249.7,52.4L249.7,52.4"/>
<polygon class="st47" points="249.6,52.3 249.6,52.3 249.6,52.3 "/>
<path class="st48" d="M249.6,52.4L249.6,52.4L249.6,52.4L249.6,52.4C249.7,52.4,249.6,52.4,249.6,52.4"/>
<path class="st41" d="M249.6,52.4L249.6,52.4L249.6,52.4L249.6,52.4 M249.7,52.4L249.7,52.4C249.7,52.4,249.7,52.4,249.7,52.4
	L249.7,52.4C249.7,52.4,249.7,52.4,249.7,52.4"/>
<path class="st49" d="M249.7,52.4L249.7,52.4L249.7,52.4L249.7,52.4C249.7,52.3,249.7,52.3,249.7,52.4"/>
<path class="st50" d="M249.6,52.3L249.6,52.3L249.6,52.3L249.6,52.3L249.6,52.3C249.6,52.3,249.6,52.3,249.6,52.3 M249.7,52.4
	L249.7,52.4C249.7,52.3,249.7,52.3,249.7,52.4L249.7,52.4C249.7,52.4,249.7,52.4,249.7,52.4"/>
<path class="st44" d="M249.5,52.3C249.5,52.3,249.5,52.3,249.5,52.3C249.5,52.3,249.5,52.3,249.5,52.3L249.5,52.3L249.5,52.3"/>
<path class="st45" d="M249.5,52.3L249.5,52.3L249.5,52.3L249.5,52.3 M249.5,52.3L249.5,52.3C249.5,52.3,249.5,52.3,249.5,52.3
	L249.5,52.3"/>
<path class="st51" d="M249.6,52.4L249.6,52.4 M249.5,52.5C249.5,52.5,249.5,52.5,249.5,52.5C249.5,52.4,249.5,52.4,249.5,52.5
	L249.5,52.5"/>
<path class="st52" d="M249.6,52.4L249.6,52.4C249.5,52.4,249.6,52.4,249.6,52.4L249.6,52.4"/>
<path class="st51" d="M249.6,52.4C249.6,52.3,249.5,52.3,249.6,52.4L249.6,52.4L249.6,52.4L249.6,52.4"/>
<polygon class="st53" points="249.6,52.3 249.5,52.3 249.5,52.3 249.6,52.3 "/>
<path class="st51" d="M249.5,52.3C249.5,52.3,249.5,52.3,249.5,52.3L249.5,52.3L249.5,52.3C249.5,52.3,249.5,52.3,249.5,52.3"/>
<polyline class="st53" points="249.5,52.3 249.5,52.3 249.5,52.3 249.5,52.3 249.5,52.3 "/>
<path class="st54" d="M249.5,52.4L249.5,52.4C249.5,52.4,249.5,52.4,249.5,52.4C249.5,52.4,249.5,52.4,249.5,52.4 M249.5,52.4
	C249.5,52.4,249.5,52.4,249.5,52.4C249.5,52.4,249.5,52.4,249.5,52.4C249.5,52.3,249.5,52.3,249.5,52.4L249.5,52.4
	C249.5,52.4,249.5,52.4,249.5,52.4 M214.5,86.3c-4.1-0.1-5.6-2.6-6.9-5.8c-1.9-4.9-0.5-7.4-1.8-10.7l-0.1-0.3c-1.3-3.3-4.1-4.1-6-9
	c-1.3-3.3-1.9-6.2,1.2-9.1c1.6,1.6,4.2,3.3,8.4,5.1c3.7,1.6,8,2.2,12.2,2.2c8,0,15.9-2.2,20.1-3.3c-5.7,3.3-19.6,10.2-24.3,21.1
	C215.3,80.9,214.5,84,214.5,86.3"/>
<path class="st55" d="M249.5,52.2L249.5,52.2C249.5,52.2,249.5,52.2,249.5,52.2L249.5,52.2C249.5,52.2,249.5,52.2,249.5,52.2
	 M249.5,52.3C249.5,52.3,249.5,52.3,249.5,52.3L249.5,52.3L249.5,52.3C249.5,52.3,249.5,52.3,249.5,52.3L249.5,52.3
	C249.5,52.3,249.5,52.3,249.5,52.3 M221.4,59c-4.2,0-8.4-0.6-12.2-2.3c-4.2-1.9-6.8-3.6-8.4-5.3c1.6-1.6,4.3-3.2,8.5-4.9
	c3.2-1.3,6.8-1.8,10.3-1.8c8.8,0,17.7,3.1,22.1,4.2c0.4,0.2,0.7,0.5,0.9,0.7c3.3,2.4,5.6,2.7,6.5,2.7h0.1c0,0,0,0,0.1,0.1
	c0,0,0,0,0,0l0,0c0,0,0,0,0,0.1c0,0,0,0,0,0c0,0,0,0,0,0c-0.1,0-0.1,0-0.2,0c-1,0-3.2,0.3-6.4,2.5c-0.4,0.2-0.8,0.5-1.3,0.8
	C237.3,56.8,229.4,59,221.4,59"/>
<path class="st56" d="M249.5,52.3L249.5,52.3L249.5,52.3C249.5,52.3,249.5,52.3,249.5,52.3"/>
<path class="st55" d="M249.5,52.3C249.5,52.3,249.5,52.3,249.5,52.3L249.5,52.3L249.5,52.3"/>
<path class="st56" d="M249.5,52.3L249.5,52.3C249.5,52.3,249.5,52.3,249.5,52.3L249.5,52.3"/>
<path class="st57" d="M249.5,52.3L249.5,52.3L249.5,52.3C249.5,52.2,249.5,52.2,249.5,52.3L249.5,52.3L249.5,52.3L249.5,52.3
	L249.5,52.3 M249.4,52.3C249.4,52.3,249.4,52.3,249.4,52.3C249.4,52.3,249.4,52.3,249.4,52.3L249.4,52.3"/>
<polygon class="st58" points="249.5,52.3 249.5,52.3 249.5,52.3 "/>
<path class="st57" d="M249.5,52.2L249.5,52.2L249.5,52.2C249.5,52.2,249.5,52.2,249.5,52.2 M249.3,52.2c-0.9,0-3.2-0.3-6.5-2.6
	c-0.3-0.2-0.6-0.4-0.9-0.6c0.4,0.1,0.8,0.2,1.1,0.3C247,50,248.8,51.6,249.3,52.2L249.3,52.2"/>
<path class="st55" d="M249.5,52.4L249.5,52.4C249.5,52.4,249.5,52.4,249.5,52.4L249.5,52.4L249.5,52.4"/>
<polygon class="st59" points="249.5,52.4 249.5,52.4 249.5,52.4 "/>
<path class="st60" d="M249.9,52.1C249.9,52.1,249.9,52.1,249.9,52.1C249.9,52.1,249.9,52.1,249.9,52.1L249.9,52.1 M250,52.1
	C250,52.1,250,52.1,250,52.1L250,52.1L250,52.1 M250,52.1C250,52.1,250,52.1,250,52.1L250,52.1L250,52.1L250,52.1 M250,52.2
	C250,52.1,250,52.1,250,52.2C250,52.1,250,52.1,250,52.2L250,52.2C250,52.1,250,52.2,250,52.2 M214.3,86.5H214
	c0-2.3,0.8-5.5,2.7-9.8c4.9-11,19.2-18,25-21.3c0.5-0.1,1-0.3,1.4-0.4c4.2-1,6.1-2.4,6.7-2.9h0c0,0,0,0,0,0l0,0c0,0,0,0,0,0
	c0,0.1,0,0.1,0,0.2c-0.6,0.7-2,2.5-3,6.4c-0.1,0.5-0.3,1-0.5,1.7c-3.5,5.9-11.2,19.3-22.4,23.7C219.7,85.7,216.6,86.5,214.3,86.5"/>
<path class="st61" d="M249.6,52.4C249.5,52.4,249.5,52.4,249.6,52.4L249.6,52.4L249.6,52.4C249.6,52.4,249.6,52.4,249.6,52.4"/>
<path class="st62" d="M249.7,52.2C249.7,52.2,249.7,52.2,249.7,52.2L249.7,52.2C249.7,52.2,249.7,52.2,249.7,52.2L249.7,52.2
	 M249.6,52.2L249.6,52.2L249.6,52.2C249.6,52.2,249.6,52.2,249.6,52.2 M249.8,52.3C249.8,52.3,249.8,52.3,249.8,52.3
	C249.7,52.3,249.7,52.2,249.8,52.3L249.8,52.3 M245.8,61.3c0.2-0.7,0.4-1.3,0.5-1.8c1.1-4.2,2.6-6.3,3.2-7c-0.1,1-0.5,3.4-2.8,7.2
	C246.5,60.1,246.2,60.6,245.8,61.3"/>
<path class="st63" d="M249.5,52.4L249.5,52.4L249.5,52.4L249.5,52.4 M249.5,52.4C249.5,52.4,249.5,52.4,249.5,52.4L249.5,52.4
	L249.5,52.4L249.5,52.4 M241.5,55.5c0.5-0.3,0.9-0.6,1.3-0.8c3.2-2.1,5.4-2.4,6.4-2.4c0.1,0,0.2,0,0.2,0c-0.6,0.5-2.4,1.9-6.5,2.8
	C242.5,55.3,242.1,55.4,241.5,55.5"/>
<path class="st52" d="M249.5,52.4C249.5,52.4,249.5,52.4,249.5,52.4L249.5,52.4L249.5,52.4L249.5,52.4"/>
<path class="st63" d="M249.5,52.3L249.5,52.3 M249.5,52.3C249.5,52.3,249.5,52.3,249.5,52.3L249.5,52.3L249.5,52.3"/>
<path class="st64" d="M249.5,52.3L249.5,52.3C249.5,52.3,249.5,52.3,249.5,52.3L249.5,52.3L249.5,52.3L249.5,52.3"/>
<path class="st65" d="M249.5,52.3L249.5,52.3L249.5,52.3z"/>
<polygon class="st66" points="249.5,52.3 249.5,52.3 249.5,52.3 "/>
</svg>
