<svg class="logo" viewBox="0 0 623 236" xmlns="http://www.w3.org/2000/svg"><g fill="none"><path d="m20.2 105.5-.3.1-.9.5c-8.7 4.5-14.7 13.2-16.6 24.3-2.4 15.7-2.5 29.9-.3 42.3 2.2 12.7 7.2 26 14.7 39.8 5.6 9.9 14.2 15.9 24.2 17.3 99.8 9.6 199.6 7.5 274.4-5.7l26.1-4.8c77.9-13.8 173.3-45.8 261.7-88 9.8-5.1 15.8-13.6 17.6-24.8 2.2-14.3 2.2-27.3-.2-42l-.2-1.5c-2.9-14.7-7.2-26.9-14.1-39.6-5.6-9.8-14.1-15.9-24.1-17.3-98.3-9.4-199.1-6.8-277.1 6.9.1 0-26.1 4.4-26.1 4.4-74.7 13.3-169 45.3-258.8 88.1z" fill="#231f20"></path><g fill="#fd0"><path d="m167.4 109.4c1.7-1.2 3.2-2.3 3.7-3.2s.5-2.2.3-3.4l-.8-4.6c-1-5.8-2.8-7.5-7.8-5.6-1.7.7-6.1 3-11.1 6.2-11.2 7-52.6 32.3-75.7 46.3-2 1.1-3.4 2-4.2 4-1.7 4-.6 10.2-.3 11.9.4 2.1 2.4 9.2 4.8 10.9 1.9 1.1 3 1.2 4.7 1.6 26.5 5.2 74.1 14.8 87 17.6 5.8 1.2 10.7 1.9 12.5 1.9 5.3.1 6.4-2.1 5.4-7.9l-.9-4.6c-.2-1.2-.7-2.5-1.5-3.1-.8-.7-2.6-1.2-4.6-1.7-14.8-3.3-74.7-14.8-90.4-18v-.2c13.8-8.5 66.1-40 78.9-48.1z"></path><path d="m288.5 67.6c-.1-.8-.6-3.7-.8-4.6-.9-4.8-3.9-6.9-8.1-5.7-10.5 2.3-18.6 4.2-30.6 7.9-11.8 3.7-18 6.2-29.4 10.4-2.1.8-6.6 2.6-9 3.8-6.5 3.3-9.8 5-13.7 7.8-3.6 2.6-7.3 5.5-9.3 8.9-4.5 7.6-4.8 11.8-3.3 20.4 1.3 7.4 6.9 39.2 8.2 46.6 1.5 8.7 3.2 12.5 10.1 18 3 2.5 7.6 4 11.8 5.2 4.6 1.3 8.2 1.8 15.5 2.7 2.7.3 7.5.5 9.7.5 12.1 0 18.8.3 31.2-.3 12.5-.6 20.8-1.6 31.5-3.1 4.3-.4 6.5-3.3 5.6-8.2-.1-.8-.7-3.7-.8-4.5-.8-4.7-3.2-6.3-7.5-5.9-11.3 1.2-20.6 2.8-31.6 3.6-10.8.8-19.1 1.4-32.1 2.1-6.5.4-12.4-.4-17-2.1-4.7-1.7-7.5-5.5-8.1-8.8-.7-3.9-8.4-47.7-9.1-51.5-.6-3.3.7-7.8 4.6-11 3.8-3.2 9.1-5.9 15.3-7.8 12.4-3.8 20.4-6 30.8-9 10.6-3 19.8-4.6 30.9-7.4 4.4-1 6.1-3.3 5.2-8z"></path><path d="m269.9 135.5c4.3-.8 5.5-3.5 5.1-8.5l-1-5.8c-1.3-4.9-3.4-7.1-7.7-6.3-7 1.6-45.7 9.7-48.2 10.3-4.5 1.1-4.7 2-4.9 3.4-.2 1.1.2 3.6.7 6.5.5 3.1 1 5.5 1.6 6.6.7 1.3 2.2 1.4 5.7 1 2.6-.4 41.6-6.2 48.7-7.2z"></path><path d="m64.9 135.4v-.1c.7-4-1-5.8-6.1-4.9-1.8.3-3.7.6-5.5 1-5.1.9-8.4 3.2-9.5 7.7-2.1 9.3-2.1 18.2-.7 26.4 1.5 8.3 4.5 16.7 9.7 24.6 2.6 3.8 6.5 4.8 11.6 3.9 1.8-.3 3.7-.6 5.5-1 5.1-.9 6.1-3.2 4.1-6.7-11.3-17-13.1-33.8-9.1-50.9z"></path><path d="m547.7 99.4c1.7.8 5.1 2.1 5.7-.4.5-2.7.4-4.6.3-7.8s-.3-8.3-1-9.9c-.4-1.2-2.1-1.9-3.3-2.2-13.4-4.7-26-8.9-40.1-13.4-17.7-5.7-55.5-18.4-56.4-18.7-3.7-1.1-6.4-1.4-8.9-.9-.8.1-1.3.2-2.1.4-.6.1-1.8.5-2.8 1.4-1.2 1-1.9 1.8-2.3 3-.4 1.1-.7 2.2-.4 3.4.2 1.3.4 2.5.6 3.3 2.3 13.2 5.3 26.2 7.6 39.4 2.3 12.8 3.9 26.1 6.3 39.2.7 3.7 2.7 5.5 6.9 4.7l5.1-.9c4.2-.8 6.4-3.3 6.2-7.1-1.1-11.3-2.7-22.4-4.1-33.3-2-11.1-3.9-21.8-6.3-32.9 17.3 5.8 34.5 11.6 51.8 17.8 11.2 3.9 26.2 10.2 37.2 14.9z"></path><path d="m602.7 102.9c-1.4 7.3-3 8.5-11.1 12.9-87.7 42.5-175.7 71.6-253 85.3l-26.4 4.9c-74 13.1-161.5 15.5-260.6 6-9-1-13.9-1.3-18.3-7.9-5.9-12.3-10.7-23.6-12.6-34.4-1.9-10.5-2.3-22.8.2-36.3 1.2-6.8 5.1-10.2 8.8-11.8 90.5-42.7 178.6-72.5 252.4-85.5l26.5-4.5c77.2-13.6 170.5-16.5 267.9-6.6 6.7.3 10.7 1.8 13.4 6.3 6.5 10.6 9.6 21.5 12.1 34.2l.2 1.2c2.3 12.7 3 23.5.5 36.2zm-4.9-74.9c-4-7-9.9-11.3-16.7-12.3-97.2-9.2-196.9-6.8-274 6.9l-26.1 4.5c-73.8 13-167.2 44.8-256.2 87.2h-.1l-.6.3c-6.2 3.2-10.2 9.2-11.6 17.2-2.2 14.5-2.3 27.5-.3 38.9 2 11.6 6.6 24 13.6 36.8 4 7 9.9 11.3 16.7 12.2 98.6 9.5 197.5 7.4 271.4-5.6l26-4.8c77.1-13.6 171.6-45.4 259.2-87.2 6.7-3.5 10.8-9.5 12.1-17.5 2.1-13.2 2-25.2-.2-38.8 0-.1-.2-1.4-.2-1.4-2.6-13.4-6.6-24.6-13-36.4z"></path><path d="m409.7 49.8c-11.2-1.4-23-2-34-2.1-11-.2-18.2-.1-29.1.2-2.2-.1-8.5.1-11.1.5-4.7.8-8.8 2-12.4 3.9s-6.7 4.6-9.2 7.6c-5 6.4-7.1 14.4-5.5 23.9 2 11.1 10 56.5 11.9 67.6 1.7 9.5 6.4 16.3 13.3 20.6 3.4 1.9 7.2 3.4 11.2 3.9 4 .6 8.3.2 13-.6 2.6-.5 8.6-2.5 10.6-3.3 10.4-3.5 17.2-5.9 27.4-9.8 10.3-3.9 21.2-8.5 31.2-13.6 4-2 4.1-4.9 3.4-8.6-.1-.8-.2-1.3-.4-2.1-.7-4.1-2.7-5.5-6.8-3.9-9.9 3.9-35.8 13-60.8 20.3-6.3 1.9-11.8 2.5-16.5 1.4-4.6-1.2-7.1-3.4-8-7.9-1.5-7-10.7-60-11.8-67.1-.7-4.5.9-7.5 4.8-10.2 4-2.7 9.5-4 15.9-4.4 26-1.6 53.5-1.7 64.1-1.4 4.4.1 5.8-1.8 5.1-5.9-.1-.8-.2-1.2-.4-2.1-.4-3.6-1.5-6.4-5.9-6.9z"></path><path d="m562.1 41.5c-1.7.3-3.4.6-5.5 1-4.2.7-5.6 3.2-3.7 6.6 3.6 6 5.9 13.1 7.4 20.7.5 2.2.9 4.4 1.2 6.9 1.3 9.3 1.5 18.6 1.3 26.2-.2 1-.1 1.9.5 2.6 1.5 1 2.4.9 4.4.6 4.3-.7 7.7-1.5 10-3.2 2.7-2.2 3.9-5.6 4.4-10 .8-8.2 1-13.8-.7-23.8-1.7-9.6-4.9-16-8.9-23.4-2-4-5.7-5-10.4-4.2z"></path><path d="m396 112c4.3-.8 5.5-3.5 5.2-8.1-.2-.9-.6-3.1-.6-3.1-1.3-4.4-3.4-6.6-7.7-5.8-6.7 1.2-32.7 4.9-49.4 7.2 0 0-3.2.3-3.5 2.8-.3 2 .4 5.9.9 8.4.4 2.2 1 5.2 2.3 7.4 1.1 1.9 3.8 1.4 3.8 1.4 16.4-3.5 42.3-9 49-10.2z"></path></g></g></svg>
