<?xml version="1.0" encoding="utf-8"?>
<!-- Generator: Adobe Illustrator 19.0.0, SVG Export Plug-In . SVG Version: 6.00 Build 0)  -->
<svg version="1.1" id="Calque_1" xmlns="http://www.w3.org/2000/svg" xmlns:xlink="http://www.w3.org/1999/xlink" x="0px" y="0px"
	 viewBox="0 0 629 217.5" style="enable-background:new 0 0 629 217.5;" xml:space="preserve">
<g>
	<line style="fill:#FFFFFF;" x1="390.1" y1="54.2" x2="4.8" y2="54.2"/>
	<rect x="4.8" y="53.7" width="385.3" height="1"/>
</g>
<g>
	<line style="fill:#FFFFFF;" x1="628.1" y1="54.2" x2="578.9" y2="54.2"/>
	<rect x="578.9" y="53.7" width="49.2" height="1"/>
</g>
<g>
	<line style="fill:#FFFFFF;" x1="390.1" y1="170.2" x2="4.8" y2="170.2"/>
	<rect x="4.8" y="169.7" width="385.3" height="1"/>
</g>
<g>
	<line style="fill:#FFFFFF;" x1="628.1" y1="170.2" x2="578.9" y2="170.2"/>
	<rect x="578.9" y="169.7" width="49.2" height="1"/>
</g>
<path style="fill:#808285;" d="M44.8,149.7l0-4.2l9.9-0.1L47.9,127l-26.6,0.1l-6.4,18.4l9.3,0l0,4.3H2.2l0-4c5.6-0.5,6.4-1.3,8-5
	L35,73.5l4.8,0l25.6,71.8l6,0l0,4.3H44.8z M34.8,90.4l-11.5,31.3l22.7-0.1L34.8,90.4z"/>
<path style="fill:#808285;" d="M117.5,91.8l-4.8,0c-0.7-8.4-4.1-13.6-15-13.6c-6.2,0-10.5,4.6-10.5,11.9c0,7.1,6.7,10.2,16,17.8
	c10.7,8.6,15.9,14.5,15.9,23c0,9.6-8.3,19.6-22,19.7c-8.4,0-13.1-2.5-20.9-0.6l-0.1-18.4l4.8,0c0.3,7,4.9,14.6,13.9,14.6
	c9.2,0,14.1-7.1,14.1-12.3c0-6.2-6.7-12.3-16.3-19.6c-9.5-7.2-15.9-14.2-15.9-21.9C76.8,81.1,86,73.9,97.2,73.9
	c3.4,0,9.9,0.9,13.6,0.8c1.6,0,2.2-0.5,3-1.1l3.6,0V91.8z"/>
<path style="fill:#808285;" d="M164.2,73.1c17.4-0.1,23.8,9.3,23.8,18.6c0,9.3-7.1,16.6-15.2,17.7c10,0.1,19.9,6.7,19.9,19.4
	c0.1,12.2-12.1,20.5-22.6,20.4h-41.8l0-4.5l6.9,0c4.4-0.4,5.3-1.5,5.3-6.4l-0.3-60.5h-10.3v-4.7H164.2z M163.6,77.8
	c-5.2,0-5.4,0-8.7,0.4c-3.4,0.4-4.3,2.2-4.3,6l0.1,23.9c0,0,5.1,0.1,7.4-0.2c10.6-1,18.7-6.2,18.6-15.4
	C176.7,84.4,172.3,77.8,163.6,77.8z M165.1,112.9c0,0-3,0-5.4,0.2c-3,0.1-6.1,0.3-8.9,0.4l0.1,30.2l9.7,0
	c12.7-0.1,20.9-3.6,20.8-15.3C181.4,118.1,173.7,112.8,165.1,112.9z"/>
<path style="fill:#808285;" d="M256.2,91.2l-5.5,0V79.5l-22.1,0.1c-3.8,0-5.4,2.5-5.4,6.5l0.1,22.1l21.5-0.1V99l5.3,0l0.1,23.9
	l-5.3,0v-9.3l-17.7,0.1c-3.6,0-3.9,0.3-3.9,4l0.1,17.9c0,3.4-0.1,6.7,0.4,7.5c0.5,0.8,17.3,0.3,17.3,0.3c3.8,0.1,10-0.8,10.5-1.6
	c0.4-0.7,1.4-10.4,1.4-10.4l4.8,0l0.1,17.4h-57l0-3.8l6.7-0.7c4.8-0.5,5.4-1.7,5.4-6.5l-0.3-59h-9.8v-4.7h45.5c2.3,0,3-0.3,3.5-1.1
	h4.2V91.2z"/>
<path style="fill:#808285;" d="M309,90.9l-4.5,0c-0.7-8.4-4.1-13.6-15-13.6c-6.2,0-10.5,4.6-10.5,11.9c0,7.1,6.7,10.2,16,17.8
	c10.7,8.6,15.9,14.5,15.9,23c0,9.6-8.3,19.6-22,19.7c-8.4,0-13.1-2.5-20.9-0.6l-0.1-18.4l4.8,0c0.3,7,4.9,14.6,14,14.6
	c9.2,0,14.1-7.1,14.1-12.3c0-6.2-6.7-12.3-16.3-19.6c-9.5-7.2-15.9-14.2-15.9-21.9c-0.1-11.4,9.1-18.6,20.4-18.6
	c3.4,0,9.9,0.9,13.6,0.8c1.6,0,2.2-0.5,3-1.1l3.3,0V90.9z"/>
<path style="fill:#808285;" d="M335.5,148.4l0-4l7.4-0.7c4.4-0.4,5.2-1.8,5.2-6.8l-0.3-57.9c-5.2,0-12.8-0.2-18-0.2
	c-5.4,0-8.2,3.8-7.7,9.6l-4.7,0.9c0,0-1.2-4.3-1.2-6.4c0-7.7,6.8-9.9,14.7-9.9c6.5,0,15.6,0.2,22.1,0.3c6.9,0.2,15.2,0.3,22.1,0.3
	c3.2,0,5.7-0.4,6.9-1.5c0,0,0.8-2.6,1-5.8l5.4-0.8c0,0,0.8,3,0.8,5.1c0,7.7-7.4,8.6-15.3,8.6c-4.4,0-7.4-0.1-10.3-0.1
	c-4.2,0-5.4,1.8-5.4,6.4l0.3,57.2l14.8,1.1l0,4.3L335.5,148.4z"/>
<path style="fill:#808285;" d="M627.3,89.9l-4.5,0c-0.7-8.4-4.1-13.6-15-13.6c-6.2,0-10.5,4.6-10.5,11.9c0,7.1,6.7,10.2,16,17.8
	c10.7,8.6,15.9,14.5,15.9,23c0,9.6-8.3,19.6-22,19.7c-8.4,0-13.1-2.5-20.9-0.6l-0.1-18.4l4.8,0c0.3,7,4.9,14.6,13.9,14.6
	c9.2,0,14.1-7.1,14.1-12.3c0-6.2-6.7-12.3-16.3-19.6c-9.5-7.2-15.9-14.2-15.9-21.9c-0.1-11.4,9.1-18.6,20.4-18.6
	c3.4,0,9.9,0.9,13.6,0.8c1.6,0,2.2-0.5,3-1.1l3.3,0V89.9z"/>
<g>
	<path style="fill:#009FDF;" d="M484.1,108.7c0,0-1.2,5,4.3,13.6c5.5,8.7,18.6,40.2,41.4,50.7c22.8,10.5,28,4.6,32.4-5
		c4.3-9.3,1.7-14.3,4.6-20.5l0.3-0.6c2.9-6.2,8.3-7.4,12.6-16.8c4.4-9.6,5.6-17.4-17.2-27.9c-22.8-10.5-55.1-0.8-65.4,1.4
		c-9.9,2.2-13.1,5.6-13.1,5.6L484.1,108.7z"/>
	<g>
		<path style="fill:none;" d="M484.1,109C484.1,109,484.1,109,484.1,109C484.1,109,484.1,109,484.1,109
			C484.1,109,484.1,109,484.1,109z"/>
		<path style="fill:#F78D28;" d="M483.6,108.9l0.4,0.2L484,109C483.7,108.9,483.6,108.9,483.6,108.9z"/>
		<path style="fill:#F78D1E;" d="M484.1,109C484.1,109,484.1,109,484.1,109c0.1-1.2,0.5-5.7,5-13c5.5-9,20.8-39.1,44.1-48.3
			c8.3-3.3,14.3-4.6,18.7-4.5c0-7.9-4.7-10.9-10.9-13.6c-9.4-4.1-14.3-1.3-20.6-4.1l-0.6-0.3c-6.3-2.7-7.6-8.2-17.1-12.2
			c-9.7-4.2-17.5-5.1-27.5,17.9c-10,23.1,0.5,55.1,3,65.4c2,8.1,4.7,11.7,5.6,12.7l-0.1-0.2C483.9,108.7,483.9,108.8,484.1,109z"/>
		<path style="fill:#F78D28;" d="M484.1,109.1l0.1,0.1C484.2,109.2,484.2,109.1,484.1,109.1C484.1,109.1,484.1,109.1,484.1,109.1z"
			/>
		<path style="fill:#2AC5F4;" d="M484.1,109.3c0,0,0-0.1,0-0.2l-0.1,0L484.1,109.3z"/>
		<path style="fill:#20C4F4;" d="M580.7,93.2c-3.8-9.5-9.2-11.1-11.7-17.4l-0.3-0.6c-2.5-6.4,0.4-11.2-3.4-20.7
			c-2.5-6.3-5.4-11.2-13.4-11.3c0,4.4-1.5,10.4-5.1,18.7c-10,23.1-41.1,36.8-49.7,42.6c-6.9,4.6-11.6,4.7-13,4.6c0,0,0,0,0,0
			c0.9,1,4.2,4.3,12.5,6c10.1,2,41.9,14.3,65.2,5.1C585.3,110.9,584.6,103.1,580.7,93.2z"/>
		<path style="fill:#2AC5F4;" d="M484,109C484.1,109,484.1,109,484,109C484.1,109,484.1,109,484,109C484.1,109,484.1,109,484,109
			C484.1,109,484,109,484,109z"/>
		<path style="fill:#2AC5F4;" d="M483.9,108.9L483.9,108.9c0.1,0.1,0.1,0.1,0.1,0.1C484,108.9,484,108.9,483.9,108.9z"/>
		<path style="fill:#F78D28;" d="M484,109C484,109,484,109,484,109l0,0.1l0.1,0C484.1,109.1,484.1,109.1,484,109
			C484.1,109,484.1,109,484,109z"/>
		<path style="fill:#2AC5F4;" d="M484,109C484,109,484,109,484,109l0,0.1l0.1,0C484.1,109.1,484.1,109.1,484,109
			C484.1,109,484.1,109,484,109z"/>
		<path style="fill:#F5841F;" d="M533.3,47.6c-23.4,9.2-38.6,39.3-44.1,48.3c-4.5,7.3-5,11.8-5,13c1.5,0.1,6.1,0,13-4.6
			c8.6-5.7,39.7-19.5,49.7-42.6c3.6-8.3,5.1-14.3,5.1-18.7C547.6,43,541.6,44.3,533.3,47.6z"/>
		<path style="fill:#F78D28;" d="M484.1,109c-0.2-0.2-0.2-0.3-0.2-0.3l0.1,0.2C484,108.9,484,108.9,484.1,109
			C484,109,484.1,109,484.1,109z"/>
		<path style="fill:#2AC5F4;" d="M484.1,109c-0.2-0.2-0.2-0.3-0.2-0.3l0.1,0.2C484,108.9,484,108.9,484.1,109
			C484,109,484.1,109,484.1,109z"/>
	</g>
	<path style="fill:#007AC1;" d="M483.6,109.2c0,0,5.1-0.9,13.4,5c8.4,6,39.1,20.7,48.4,44.1c9.3,23.4,3.1,28.2-6.7,32.1
		c-9.5,3.8-14.4,0.9-20.7,3.4l-0.6,0.3c-6.4,2.5-7.9,7.9-17.4,11.7c-9.9,3.9-17.7,4.6-26.9-18.7c-9.3-23.4,2.2-55.1,5-65.3
		c2.7-9.8,6.3-12.8,6.3-12.8L483.6,109.2z"/>
	<path style="fill:#FEC00F;" d="M484.1,108.8c0,0-5.1,0.9-13.4-5c-8.4-6-39.2-20.7-48.5-44c-9.3-23.3-3.1-28.2,6.7-32.1
		c9.5-3.8,14.3-0.9,20.7-3.5l0.6-0.3c6.4-2.5,7.9-7.9,17.4-11.7c9.8-3.9,17.7-4.6,27,18.7c9.3,23.3-2.1,55.1-4.9,65.3
		c-2.7,9.8-6.3,12.8-6.3,12.8L484.1,108.8z"/>
	<path style="fill:#FDE700;" d="M483.8,109.4c0,0,1.1-5.1-4.5-13.6c-5.7-8.6-19.3-39.8-42.3-49.9c-23-10.1-28.1-4.1-32.3,5.6
		c-4.1,9.4-1.4,14.3-4.2,20.6l-0.3,0.6c-2.8,6.3-8.2,7.6-12.3,17c-4.3,9.7-5.2,17.5,17.8,27.6c23,10.1,55.1-0.2,65.4-2.7
		c9.9-2.3,13-5.9,13-5.9L483.8,109.4z"/>
	<path style="fill:#72BF44;" d="M484.3,109.2c0,0-5.1-1.1-13.5,4.6c-8.6,5.7-39.8,19.4-49.8,42.5c-10,23-4,28.1,5.7,32.3
		c9.4,4.1,14.3,1.4,20.6,4.1l0.6,0.3c6.3,2.7,7.6,8.2,17,12.3c9.7,4.2,17.5,5.2,27.5-17.9c10-23-0.4-55.1-2.9-65.4
		c-2.4-9.9-5.9-13-5.9-13L484.3,109.2z"/>
	<path style="fill:#BFD730;" d="M483.9,109.4c0,0-2.8-4.3-12.8-6.3c-10.1-2-41.9-14.3-65.3-5c-23.3,9.3-22.6,17.1-18.7,26.9
		c3.8,9.5,9.2,11.1,11.7,17.4l0.3,0.6c2.5,6.4-0.4,11.2,3.4,20.7c3.9,9.9,8.8,16,32.1,6.8c23.3-9.3,38.6-39.4,44.1-48.4
		c5.3-8.7,5-13.4,5-13.4L483.9,109.4z"/>
</g>
</svg>
