<?xml version="1.0" encoding="utf-8"?>
<!-- Generator: Adobe Illustrator 19.0.0, SVG Export Plug-In . SVG Version: 6.00 Build 0)  -->
<svg version="1.1" id="logo_Moulin7" xmlns="http://www.w3.org/2000/svg" xmlns:xlink="http://www.w3.org/1999/xlink" x="0px"
	 y="0px" viewBox="0 0 636 636" style="enable-background:new 0 0 636 636;" xml:space="preserve">
<style type="text/css">
	#logo_Moulin7 .st0{fill:#232222;}
	#logo_Moulin7 .st1{fill:#E24301;}
	#logo_Moulin7 .st2{fill-rule:evenodd;clip-rule:evenodd;fill:#232222;}
	#logo_Moulin7 .st3{fill:#FFFFFF;}
	#logo_Moulin7 .st4{fill-rule:evenodd;clip-rule:evenodd;fill:#FFFFFF;}
</style>
<g id="LOGO_1_">
	<g id="typo">
		<g id="Moulin7">
			<g>
				<path class="st0" d="M79.2,418.8h-0.3L72.8,442h-0.3l-14.5-42.8H23.7c-1.6,0-5.7,0-5.7,4.3c0,3.3,3.7,3.6,5.3,3.8
					c2.3,0.1,2.8,1.8,4.1,3.9c1.1,1.8,1.8,3.9,2.4,6l28.3,86.4H62l17.2-59.3V418.8z"/>
				<path class="st0" d="M37.2,481.4v-24l-7.6-23h-0.3v47c-2.2,17.4-10.8,12-10.8,18c0,4.3,5.5,4,7,4H41c1.5,0,7,0.3,7-4
					C48.1,493.4,39.4,498.9,37.2,481.4z"/>
				<path class="st0" d="M123,407.2c1.8-0.6,3-1.8,3-3.8c0-4-4.5-4.3-5-4.3H85.3v88.8c0,5.2,0.1,6-4.6,7.5c-1.8,0.6-3,1.8-3,3.8
					c0,4,4.5,4.3,5,4.3H121c0.5,0,5-0.3,5-4.3c0-2-1.2-3.2-3-3.8c-4.7-1.5-4.6-2.4-4.6-7.5v-73.1C118.4,409.6,118.3,408.7,123,407.2
					z"/>
			</g>
			<path class="st0" d="M168.9,410c-5.9,2.2-6.4,6.1-6.4,9.3v66.9c0,3.2,0.5,7.1,6.4,9.3v7.5c-26.5-2.5-38.9-24.5-38.9-50.2
				c0-25.7,12.4-47.8,38.9-50.2V410z M174.6,495.5c5.9-2.2,6.4-6.1,6.4-9.3v-66.9c0-3.2-0.5-7.1-6.4-9.3v-7.5
				c26.5,2.5,38.9,24.5,38.9,50.2c0,25.7-12.4,47.8-38.9,50.2V495.5z"/>
			<path class="st0" d="M262.8,503c-9.9,0-17.5-0.1-26.2-5c-11.3-6.4-12.8-11.4-12.8-17.8v-61.2c0-4.8,0.1-5.5-4.3-7
				c-1.6-0.5-2.8-1.7-2.8-3.5c0-3.7,4.1-4,4.6-4H257c0.5,0,4.6,0.3,4.6,4c0,1.8-1.1,3-2.8,3.5c-4.4,1.4-4.3,2.2-4.3,7V481
				c0,1.3-1.1,11.5,8.3,14.3V503z M268.3,495.3c9.4-2.8,8.3-13,8.3-14.3v-62.1c0-4.8,0.1-5.5-4.3-7c-1.6-0.5-2.8-1.7-2.8-3.5
				c0-3.7,4.1-4,4.6-4h35.4c0.5,0,4.6,0.3,4.6,4c0,1.8-1.1,3-2.8,3.5c-4.4,1.4-4.3,2.2-4.3,7v61.2c0,6.5-1.5,11.4-12.8,17.8
				c-8.6,4.9-16.3,5-26.2,5V495.3z"/>
			<path class="st0" d="M355.1,501h-33.1c-0.5,0-4.6-0.3-4.6-4c0-1.8,1.1-3,2.8-3.5c4.4-1.4,4.3-2.2,4.3-7v-67.7
				c0-4.8,0.1-5.5-4.3-7c-1.6-0.5-2.8-1.7-2.8-3.5c0-3.7,4.1-4,4.6-4h35.4c0.5,0,4.6,0.3,4.6,4c0,1.8-1.1,3-2.8,3.5
				c-4.4,1.4-4.3,2.2-4.3,7V501z M360.8,493.5c10.1-1.4,15.9-10.5,18.5-22.5c0.6-2.8,2.1-3.6,4.8-3.6c2.9,0,3.1,2.4,3.1,4.9V501
				h-26.4V493.5z"/>
			<path class="st0" d="M428.1,486.6c0,4.8-0.1,5.5,4.3,7c1.6,0.5,2.8,1.7,2.8,3.5c0,3.7-4.1,4-4.6,4H395c-0.5,0-4.6-0.3-4.6-4
				c0-1.8,1.1-3,2.8-3.5c4.4-1.4,4.3-2.2,4.3-7v-67.7c0-4.8,0.1-5.5-4.3-7c-1.6-0.5-2.8-1.7-2.8-3.5c0-3.7,4.1-4,4.6-4h35.4
				c0.5,0,4.6,0.3,4.6,4c0,1.8-1.1,3-2.8,3.5c-4.4,1.4-4.3,2.2-4.3,7V486.6z"/>
			<path class="st0" d="M448.3,428.7h0.2l7,12.9v39c2,16.1,10,11.1,10,16.7c0,4-5.1,3.7-6.5,3.7h-14.3c-1.4,0-6.5,0.3-6.5-3.7
				c0-5.5,8-0.5,10-16.7V428.7z M513.6,469.8V501h-18.7l-45.8-81.5c-2-3.6-2.6-5.5-6.8-7c-2.1-0.8-3.8-1.3-3.8-4.1
				c0-3.9,3.8-3.9,6.4-4h32.2L513.6,469.8z M506.3,427.8c0-18.5-10.3-13.6-10.3-19.5c0-3.6,4.1-3.9,5.4-3.9h17
				c1.3,0,5.4,0.3,5.4,3.9c0,5.9-10.3,1-10.3,19.5v31.4h-0.2l-7-13V427.8z"/>
			<g>
				<path class="st1" d="M557.9,408.3c0.8-0.1,1.7-0.1,2.6-0.1l10.8-0.1l2.1-8c-19.6,0-39.6,0.1-42.9,0l-0.1,28.9l0.1,2.2v-0.5
					c0,2.6,0.3,5.3,3.3,5.3c2.8,0,4.4-0.8,5.1-3.9C541.5,419.6,547.5,410.1,557.9,408.3z"/>
				<path class="st1" d="M614,400.1c0,0-16.7,0-35.2,0.1l-2.1,7.9h0.1l-20.6,79.7c-0.7,2.3-0.9,2.9-1.7,4.7
					c-0.6,1.4-1.6,2.2-4.4,3.1c-1.7,0.6-3,1.8-3,3.7c0,4,4.4,4.3,5,4.3h14.1h9.2h14.1c0.5,0,5-0.3,5-4.3c0-1.9-1.2-3.2-3-3.7
					c-0.8-0.3-1.4-0.5-2-0.8c-2.5-1.2-2.1-2.5-1-6.8l18.8-72.5c1.3-5.1,1.4-5.9,6.5-7.5c1.9-0.6,3.4-1.8,3.9-3.7
					C618.9,400.3,614.5,400.1,614,400.1z"/>
			</g>
		</g>
		<path id="ligne" class="st0" d="M594.5,521.6c0,1.7-1.5,3-3.4,3H21.6c-1.9,0-3.6-1.4-3.6-3l0,0c0-1.7,1.7-3,3.6-3h569.5
			C593,518.6,594.5,519.9,594.5,521.6L594.5,521.6z"/>
		<g id="micro">
			<path class="st1" d="M36.7,541.5l6.8,21.4l3-11.6v12.7l-8,29.6h-1.8l-13.4-44c-0.5-1.5-0.9-2.5-1.5-3c-0.3-0.3-0.8-0.6-1.6-0.7
				c-1.5-0.4-2.2-1.1-2.2-2.4c0-0.7,0.2-1.2,0.6-1.5c0.4-0.4,1-0.6,1.8-0.6H36.7z M23.3,559.1l3.7,11.5v11.5c0,1.2,0,2,0.1,2.5
				c0.1,0.5,0.3,1.1,0.5,1.7c0.5,1.1,1.2,2,2,2.5l1.3,0.9c0.9,0.6,1.3,1.2,1.3,2c0,1.3-0.9,1.9-2.6,1.9h-8.7c-1.7,0-2.6-0.6-2.6-1.9
				c0-0.4,0.1-0.7,0.2-0.9c0.1-0.2,0.4-0.5,0.9-0.7c2.6-1.5,3.8-4.2,3.8-8V559.1z M49.4,541.5h15.4h0.9c1.7,0,2.6,0.7,2.6,2
				c0,1-0.5,1.7-1.4,2.1c-0.8,0.3-1.2,0.5-1.3,0.5c-0.1,0.1-0.3,0.2-0.4,0.4c-0.3,0.4-0.4,1.1-0.4,1.9v38.3c0,0.9,0.1,1.5,0.4,2
				c0.1,0.2,0.3,0.4,0.4,0.4c0.1,0.1,0.6,0.2,1.3,0.5c0.9,0.3,1.4,1,1.4,2.1c0,1.3-0.9,2-2.6,2h-0.9H49.4h-1.1c-1,0-1.8-0.2-2.3-0.5
				c-0.5-0.3-0.8-0.9-0.8-1.5c0-1.1,0.6-1.8,1.7-2.1c0.9-0.3,1.4-0.4,1.6-0.5c0.2-0.1,0.3-0.2,0.5-0.4c0.3-0.5,0.5-1.2,0.5-2.2
				V541.5z"/>
			<path class="st1" d="M90.5,593.7H75.1h-0.9c-0.8,0-1.5-0.2-1.9-0.5c-0.5-0.3-0.7-0.8-0.7-1.5c0-1,0.5-1.7,1.4-2.1
				c0.8-0.3,1.2-0.5,1.3-0.5c0.1-0.1,0.3-0.2,0.4-0.4c0.3-0.4,0.4-1.1,0.4-2v-38.3c0-0.9-0.1-1.5-0.4-1.9c-0.1-0.2-0.3-0.4-0.4-0.4
				c-0.1-0.1-0.6-0.2-1.3-0.5c-0.9-0.3-1.4-1-1.4-2.1c0-0.6,0.2-1.1,0.7-1.5c0.4-0.3,1.1-0.5,1.9-0.5h0.9h15.4h0.9
				c0.8,0,1.5,0.2,1.9,0.5c0.4,0.3,0.7,0.8,0.7,1.5c0,1-0.5,1.7-1.4,2.1c-0.8,0.3-1.2,0.5-1.3,0.5c-0.1,0.1-0.3,0.2-0.4,0.4
				c-0.3,0.4-0.4,1.1-0.4,1.9v38.3c0,0.9,0.1,1.5,0.4,2c0.1,0.2,0.3,0.4,0.4,0.4c0.1,0.1,0.6,0.2,1.3,0.5c0.9,0.3,1.4,1,1.4,2.1
				c0,0.6-0.2,1.1-0.7,1.5c-0.4,0.3-1.1,0.5-1.9,0.5H90.5z"/>
			<path class="st1" d="M117.7,540.5v4.6c-1.4,0.2-2.4,0.9-3,2c-0.7,1.1-1,2.7-1,4.7v31.6v1.6c0,0.6,0.1,1.2,0.3,1.9
				c0.2,0.7,0.5,1.2,0.8,1.7c0.4,0.5,0.8,0.9,1.2,1.1c0.4,0.2,1,0.4,1.7,0.4v4.7c-4.5,0-8.4-1.3-11.7-3.9c-2.9-2.3-5.1-5.3-6.6-9.2
				c-1.5-3.8-2.2-8.4-2.2-13.6c0-3.8,0.5-7.4,1.4-10.8c1-3.3,2.3-6.2,4.2-8.7c1.8-2.5,4.1-4.5,6.6-6c2.6-1.5,5-2.3,7.4-2.3
				L117.7,540.5z M120.4,545.2v-4.6c1.1,0.2,2,0.4,2.8,0.7c0.7,0.2,2,0.7,3.8,1.5c1.2,0.5,2,0.7,2.4,0.7c0.7,0,1.2-0.3,1.5-1
				l0.5-0.9c0.3-0.6,0.8-0.9,1.6-0.9c0.6,0,1.1,0.2,1.4,0.6c0.3,0.4,0.5,1,0.5,1.8v15.9c0,1-0.2,1.8-0.6,2.2
				c-0.4,0.5-0.9,0.7-1.4,0.7c-0.6,0-1-0.2-1.3-0.6c-0.3-0.4-0.6-1-0.8-1.9c-0.5-2-1-3.6-1.4-4.7c-1-2.4-2.1-4.4-3.4-5.9
				c-0.9-1-1.7-1.8-2.6-2.4C122.4,545.7,121.5,545.3,120.4,545.2z M120.5,594.7v-4.7c1.8-0.2,3.7-0.9,5.7-2.3c1.1-0.7,2-1.7,2.8-3
				c0.8-1.2,1.5-2.6,1.9-4.1c0.2-0.8,0.5-1.4,0.8-1.7c0.3-0.3,0.7-0.5,1.2-0.5c0.6,0,1,0.2,1.4,0.7c0.4,0.5,0.6,1,0.6,1.7
				c0,1.1-0.4,2.5-1.2,4.2c-0.8,1.6-1.8,3.1-3.1,4.5c-1.5,1.7-3.1,2.9-4.7,3.7C124.4,594.2,122.5,594.6,120.5,594.7z"/>
			<path class="st1" d="M157.1,541.5v44.9c0,1,0.2,1.7,0.5,2.1c0.2,0.3,0.4,0.4,0.5,0.5c0.2,0.1,0.7,0.2,1.6,0.5
				c1.1,0.3,1.7,1,1.7,2.1c0,0.7-0.3,1.2-0.9,1.6c-0.4,0.3-1.2,0.5-2.2,0.5h-1.2h-15.4h-0.9c-0.8,0-1.5-0.2-1.9-0.5
				c-0.4-0.3-0.7-0.8-0.7-1.5c0-1,0.5-1.7,1.4-2.1c0.8-0.3,1.2-0.5,1.3-0.5c0.1-0.1,0.3-0.2,0.4-0.4c0.3-0.4,0.4-1.1,0.4-2v-38.3
				c0-0.9-0.1-1.5-0.4-1.9c-0.1-0.2-0.3-0.4-0.4-0.4c-0.1-0.1-0.6-0.2-1.3-0.5c-0.9-0.3-1.4-1-1.4-2.1c0-0.6,0.2-1.1,0.7-1.5
				c0.5-0.3,1.1-0.5,1.9-0.5h0.9H157.1z M167.7,568.1c2.1,0.4,3.7,0.8,4.9,1.2c1.1,0.4,2.2,1,3.1,1.8c1,0.8,1.7,1.7,2.2,2.8
				c0.5,1.1,0.8,2.3,0.8,3.5v7.9c0,0.8,0.2,1.2,0.7,1.2c0.2,0,0.3-0.1,0.5-0.2c0.1-0.1,0.3-0.3,0.5-0.7c0.6-0.9,1.2-1.3,1.8-1.3
				c0.4,0,0.8,0.2,1.2,0.7c0.4,0.5,0.6,0.9,0.6,1.4c0,0.8-0.3,1.8-1,2.9c-0.7,1.1-1.5,2.2-2.5,3c-0.9,0.8-2,1.4-3.1,1.8
				c-1.1,0.4-2.4,0.6-3.9,0.6c-3,0-5.4-1-7.1-2.9c-1.7-1.9-2.6-4.6-2.6-8v-6.4c0-1.4,0-2.3,0-2.5c-0.1-1-0.4-1.9-1-2.6
				c-0.7-0.9-1.6-1.4-2.9-1.6v-4.1c1.2-0.2,2.1-0.6,2.7-1.1c0.5-0.5,0.8-1,1-1.6c0.2-0.6,0.3-1.5,0.3-2.6v-10.1
				c0-1.6-0.3-2.8-0.8-3.6c-0.6-0.8-1.6-1.4-3.1-1.9v-4.2h0.9c2.6,0,4.7,0.1,6.5,0.3c2.7,0.3,5.1,1.2,7.2,2.9
				c3,2.4,4.5,5.7,4.5,10.1c0,3.6-1,6.5-3,8.8c-0.9,1-1.9,1.8-3,2.4C171.7,566.7,170,567.4,167.7,568.1z"/>
			<path class="st1" d="M203.5,544.6c-1.2,0.5-2,1.1-2.5,1.9c-0.5,0.8-0.7,2-0.7,3.5v34.2c0,2.2,0.3,3.8,0.8,4.7
				c0.4,0.8,1.2,1.3,2.4,1.6v4.2c-5.1-0.5-9.4-2.6-12.9-6.4c-4.5-4.9-6.7-11.8-6.7-20.7c0-4.4,0.6-8.4,1.8-12
				c1.2-3.6,2.9-6.6,5.3-9.1c1.8-1.9,3.7-3.4,5.7-4.4c2.1-1,4.3-1.6,6.8-1.7V544.6z M206.4,544.6v-4.1c2.5,0.1,4.8,0.7,6.8,1.7
				c2.1,1,4,2.4,5.8,4.4c4.7,5.1,7.1,12.1,7.1,21.1c0,8.8-2.2,15.7-6.7,20.7c-3.5,3.8-7.8,6-12.9,6.4v-4.2c0.6-0.2,1.1-0.3,1.4-0.6
				c0.3-0.2,0.6-0.6,0.9-1.1c0.6-1,0.9-2.6,0.9-4.7V550c0-1.3-0.2-2.4-0.6-3.2c-0.3-0.5-0.6-1-1-1.3
				C207.6,545.2,207.1,544.9,206.4,544.6z"/>
			<path class="st1" d="M248.2,541.5v52.2h-15.4h-0.9c-0.8,0-1.5-0.2-1.9-0.5c-0.4-0.3-0.7-0.8-0.7-1.5c0-1,0.5-1.7,1.4-2.1
				c0.8-0.3,1.2-0.5,1.3-0.5c0.1-0.1,0.3-0.2,0.4-0.4c0.3-0.4,0.4-1.1,0.4-2v-38.3c0-0.9-0.1-1.5-0.4-1.9c-0.1-0.2-0.3-0.4-0.4-0.4
				c-0.1-0.1-0.6-0.2-1.3-0.5c-0.9-0.3-1.4-1-1.4-2.1c0-0.6,0.2-1.1,0.7-1.5c0.5-0.3,1.1-0.5,1.9-0.5h0.9H248.2z M259,566.7
				c2.1,0.5,3.7,0.9,4.8,1.3c1.1,0.4,2.1,1,3,1.6c1.5,1.1,2.7,2.5,3.5,4.3c0.8,1.8,1.2,3.8,1.2,6c0,4.4-1.5,7.8-4.4,10.2
				c-1.5,1.3-3.2,2.2-5,2.7c-1.8,0.5-4.2,0.8-7.1,0.8H251v-4c0.9-0.1,1.6-0.2,2.2-0.4c0.5-0.2,1-0.6,1.4-1.1
				c0.8-0.9,1.1-2.4,1.1-4.4v-8.7c0-1.3-0.1-2.3-0.3-3c-0.2-0.7-0.6-1.4-1.1-2c-0.4-0.5-0.8-0.8-1.3-1c-0.5-0.2-1.1-0.4-2-0.5v-4
				c0.9-0.1,1.5-0.2,2-0.4c0.5-0.2,0.9-0.5,1.3-0.9c0.4-0.4,0.7-0.9,0.9-1.5c0.3-0.6,0.4-1.2,0.4-1.7v-2.1v-6.6
				c0-0.7-0.1-1.4-0.3-2.2c-0.2-0.8-0.5-1.3-0.8-1.8c-0.4-0.6-0.9-1-1.5-1.3c-0.5-0.3-1.3-0.5-2.2-0.6v-4.2h4c5.3,0,9.3,1.2,12,3.6
				c1.3,1.1,2.2,2.4,2.9,4c0.7,1.6,1,3.2,1,5c0,1.8-0.3,3.5-1,5c-0.7,1.6-1.6,2.9-2.9,3.9c-0.9,0.8-1.9,1.5-3.1,2
				C262.8,565.6,261.1,566.2,259,566.7z"/>
			<path class="st1" d="M293.7,541.5v44.9c0,1,0.2,1.7,0.5,2.1c0.2,0.3,0.4,0.4,0.5,0.5c0.2,0.1,0.7,0.2,1.6,0.5
				c1.1,0.3,1.7,1,1.7,2.1c0,0.7-0.3,1.2-0.9,1.6c-0.4,0.3-1.2,0.5-2.2,0.5h-1.2h-15.4h-0.9c-0.8,0-1.5-0.2-1.9-0.5
				c-0.4-0.3-0.7-0.8-0.7-1.5c0-1,0.5-1.7,1.4-2.1c0.8-0.3,1.2-0.5,1.3-0.5c0.1-0.1,0.3-0.2,0.4-0.4c0.3-0.4,0.4-1.1,0.4-2v-38.3
				c0-0.9-0.1-1.5-0.4-1.9c-0.1-0.2-0.3-0.4-0.4-0.4c-0.1-0.1-0.6-0.2-1.3-0.5c-0.9-0.3-1.4-1-1.4-2.1c0-0.6,0.2-1.1,0.7-1.5
				c0.4-0.3,1.1-0.5,1.9-0.5h0.9H293.7z M304.3,568.1c2.1,0.4,3.8,0.8,4.9,1.2c1.1,0.4,2.2,1,3.1,1.8c1,0.8,1.7,1.7,2.2,2.8
				c0.5,1.1,0.8,2.3,0.8,3.5v7.9c0,0.8,0.2,1.2,0.7,1.2c0.2,0,0.3-0.1,0.5-0.2c0.1-0.1,0.3-0.3,0.5-0.7c0.6-0.9,1.2-1.3,1.8-1.3
				c0.4,0,0.8,0.2,1.2,0.7c0.4,0.5,0.6,0.9,0.6,1.4c0,0.8-0.3,1.8-1,2.9c-0.7,1.1-1.5,2.2-2.5,3c-0.9,0.8-2,1.4-3.1,1.8
				c-1.1,0.4-2.4,0.6-3.9,0.6c-3,0-5.4-1-7.1-2.9c-1.7-1.9-2.6-4.6-2.6-8v-6.4c0-1.4,0-2.3,0-2.5c-0.1-1-0.4-1.9-1-2.6
				c-0.7-0.9-1.6-1.4-2.9-1.6v-4.1c1.2-0.2,2.1-0.6,2.7-1.1c0.5-0.5,0.8-1,0.9-1.6c0.2-0.6,0.3-1.5,0.3-2.6v-10.1
				c0-1.6-0.3-2.8-0.8-3.6c-0.6-0.8-1.6-1.4-3.1-1.9v-4.2h0.9c2.6,0,4.7,0.1,6.5,0.3c2.7,0.3,5.1,1.2,7.2,2.9
				c3,2.4,4.5,5.7,4.5,10.1c0,3.6-1,6.5-3,8.8c-0.9,1-1.8,1.8-3,2.4C308.4,566.7,306.7,567.4,304.3,568.1z"/>
			<path class="st1" d="M336.8,551.2l1.8,7.9l-6.1,24.7c-0.2,0.7-0.3,1.4-0.3,2c0,1.6,0.7,2.8,2,3.4l1.2,0.6c0.8,0.4,1.1,1,1.1,1.9
				c0,1.3-0.8,1.9-2.5,1.9h-8.8c-0.9,0-1.5-0.2-2-0.6c-0.5-0.4-0.7-0.9-0.7-1.6c0-0.7,0.5-1.4,1.5-1.8c0.9-0.5,1.6-0.9,2.1-1.2
				c0.5-0.4,0.9-0.9,1.3-1.5c0.6-1,1.2-2.4,1.6-4.2L336.8,551.2z M339.2,541.5h13.9l9.6,44.9c0.2,0.8,0.4,1.5,0.6,2.1
				c0.2,0.5,0.7,0.9,1.4,1.2c0.6,0.3,1,0.6,1.2,0.8c0.2,0.3,0.3,0.7,0.3,1.2c0,1.3-0.9,2-2.7,2h-17.3c-0.7,0-1.2-0.2-1.7-0.6
				c-0.4-0.4-0.6-0.9-0.6-1.5c0-0.5,0.1-0.9,0.3-1.1c0.2-0.3,0.6-0.6,1.2-1c0.5-0.3,0.8-0.5,1-0.8c0.2-0.3,0.3-0.7,0.3-1.1
				c0-0.4,0-0.8-0.1-1.1l-1.1-5.5H336l0.9-4.5h7.7l-6.4-31.1L339.2,541.5z"/>
			<path class="st1" d="M385.8,540.5v4.4c-1.4,0.4-2.5,1.1-3.3,2c-0.8,0.9-1.1,2-1.1,3.3c0,1.3,0.3,2.4,0.9,3.3c0.6,1,1.6,1.9,3,2.7
				c1,0.6,3.2,1.7,6.6,3.4c2.1,1,3.7,1.9,4.8,2.7c1.1,0.8,2.2,1.8,3.2,3c2.7,3.2,4.1,6.9,4.1,11.3c0,3.3-0.7,6.3-2.2,9
				c-1.5,2.7-3.5,4.9-6.1,6.4c-1.4,0.8-2.9,1.5-4.5,1.9c-1.7,0.5-3.2,0.7-4.6,0.7v-4.4c2-0.5,3.5-1.3,4.3-2.2c0.9-1,1.3-2.3,1.3-3.9
				c0-1.7-0.7-3.2-2.1-4.5c-0.9-0.8-2.7-1.9-5.3-3.1c-2.8-1.4-4.8-2.4-5.8-2.9c-1.1-0.6-2.1-1.3-3-2.1c-4.3-3.4-6.5-8-6.5-13.6
				c0-2.9,0.5-5.6,1.6-8c1.1-2.5,2.6-4.4,4.5-5.9C378.4,541.9,381.8,540.7,385.8,540.5z M384,590.4v4.4c-1.9,0-4-0.6-6.3-1.8
				c-0.9-0.4-1.4-0.7-1.8-0.8c-0.3-0.1-0.6-0.2-0.9-0.2c-0.5,0-0.8,0.1-1,0.2c-0.2,0.2-0.6,0.6-1.1,1.2c-0.4,0.6-0.9,0.8-1.4,0.8
				c-1.3,0-1.9-1.1-1.9-3.3V577c0-0.7,0.2-1.3,0.6-1.8c0.4-0.5,0.8-0.8,1.4-0.8c0.5,0,0.9,0.1,1.2,0.5c0.3,0.3,0.5,1,0.7,1.8
				c0.5,2.2,1.3,4.2,2.3,6.2c1,1.9,2.2,3.5,3.5,4.9C380.6,589.1,382.2,590,384,590.4z M388.5,544.9v-4.2c1.4,0.1,2.6,0.3,3.6,0.6
				c1,0.3,2.5,0.9,4.3,1.7c0.5,0.2,0.8,0.3,1.1,0.3c0.4,0,0.8-0.2,1-0.5l0.8-1.1c0.4-0.6,0.8-0.8,1.3-0.8c0.6,0,1.1,0.2,1.4,0.7
				c0.3,0.5,0.4,1.3,0.4,2.3v12.6c0,0.7-0.2,1.3-0.6,1.8c-0.4,0.5-0.9,0.7-1.5,0.7c-0.5,0-0.9-0.2-1.3-0.5c-0.2-0.2-0.4-0.5-0.5-0.7
				c-0.1-0.3-0.2-0.8-0.4-1.5c-0.3-1.2-0.7-2.5-1.3-3.9c-0.6-1.3-1.4-2.5-2.2-3.6C393.1,546.9,391,545.6,388.5,544.9z"/>
			<path class="st1" d="M423.5,540.5v4.4c-1.4,0.4-2.5,1.1-3.3,2c-0.8,0.9-1.1,2-1.1,3.3c0,1.3,0.3,2.4,0.9,3.3c0.6,1,1.6,1.9,3,2.7
				c1,0.6,3.2,1.7,6.6,3.4c2.1,1,3.7,1.9,4.8,2.7c1.1,0.8,2.2,1.8,3.2,3c2.7,3.2,4.1,6.9,4.1,11.3c0,3.3-0.7,6.3-2.2,9
				c-1.5,2.7-3.5,4.9-6.1,6.4c-1.4,0.8-2.9,1.5-4.5,1.9c-1.7,0.5-3.2,0.7-4.6,0.7v-4.4c2-0.5,3.5-1.3,4.3-2.2c0.9-1,1.3-2.3,1.3-3.9
				c0-1.7-0.7-3.2-2.1-4.5c-0.9-0.8-2.7-1.9-5.3-3.1c-2.8-1.4-4.8-2.4-5.8-2.9c-1-0.6-2.1-1.3-3-2.1c-4.3-3.4-6.5-8-6.5-13.6
				c0-2.9,0.5-5.6,1.6-8c1.1-2.5,2.6-4.4,4.5-5.9C416.2,541.9,419.6,540.7,423.5,540.5z M421.7,590.4v4.4c-1.9,0-4-0.6-6.3-1.8
				c-0.9-0.4-1.4-0.7-1.8-0.8c-0.3-0.1-0.6-0.2-0.9-0.2c-0.5,0-0.8,0.1-1,0.2c-0.2,0.2-0.6,0.6-1.1,1.2c-0.4,0.6-0.9,0.8-1.3,0.8
				c-1.3,0-1.9-1.1-1.9-3.3V577c0-0.7,0.2-1.3,0.6-1.8c0.4-0.5,0.8-0.8,1.4-0.8c0.5,0,0.9,0.1,1.2,0.5c0.3,0.3,0.5,1,0.7,1.8
				c0.5,2.2,1.3,4.2,2.3,6.2c1,1.9,2.2,3.5,3.5,4.9C418.4,589.1,420,590,421.7,590.4z M426.3,544.9v-4.2c1.4,0.1,2.6,0.3,3.6,0.6
				c1,0.3,2.5,0.9,4.3,1.7c0.5,0.2,0.8,0.3,1.1,0.3c0.4,0,0.8-0.2,1-0.5l0.8-1.1c0.4-0.6,0.8-0.8,1.3-0.8c0.6,0,1.1,0.2,1.4,0.7
				c0.3,0.5,0.4,1.3,0.4,2.3v12.6c0,0.7-0.2,1.3-0.6,1.8c-0.4,0.5-0.9,0.7-1.5,0.7c-0.5,0-0.9-0.2-1.3-0.5c-0.2-0.2-0.4-0.5-0.5-0.7
				c-0.1-0.3-0.2-0.8-0.4-1.5c-0.3-1.2-0.7-2.5-1.3-3.9c-0.6-1.3-1.3-2.5-2.2-3.6C430.9,546.9,428.8,545.6,426.3,544.9z"/>
			<path class="st1" d="M464,541.5v52.2h-15.4h-0.9c-0.8,0-1.5-0.2-1.9-0.5c-0.5-0.3-0.7-0.8-0.7-1.5c0-1,0.5-1.7,1.4-2.1
				c0.8-0.3,1.2-0.5,1.3-0.5c0.1-0.1,0.3-0.2,0.4-0.4c0.3-0.4,0.4-1.1,0.4-2v-38.3c0-0.9-0.1-1.5-0.4-1.9c-0.1-0.2-0.3-0.4-0.4-0.4
				c-0.1-0.1-0.6-0.2-1.3-0.5c-0.9-0.3-1.4-1-1.4-2.1c0-0.6,0.2-1.1,0.7-1.5c0.4-0.3,1.1-0.5,1.9-0.5h0.9H464z M466.9,569.4v-4.4
				c1.3-0.7,2.3-1.5,3-2.3c0.6-0.8,1.1-2,1.4-3.4c0.2-1,0.4-1.6,0.7-2c0.3-0.4,0.7-0.6,1.3-0.6c0.7,0,1.2,0.3,1.5,1
				c0.2,0.3,0.2,1.1,0.2,2.3v14.6c0,1.2-0.1,2-0.4,2.5c-0.2,0.5-0.7,0.7-1.3,0.7c-0.5,0-0.9-0.2-1.2-0.5c-0.3-0.4-0.5-1-0.7-1.8
				c-0.4-1.8-1-3.1-1.7-4C469,570.3,468.1,569.7,466.9,569.4z M467.1,541.5H481v13.5c0,0.8-0.1,1.4-0.4,1.7
				c-0.3,0.4-0.7,0.5-1.3,0.5c-0.5,0-0.9-0.1-1.1-0.3c-0.2-0.2-0.4-0.7-0.7-1.4c-0.9-3-2.2-5.2-3.9-6.8c-1.7-1.6-3.9-2.5-6.6-2.8
				V541.5z M467.1,593.7v-4.1c1.5-0.3,2.7-0.6,3.7-1.1c1-0.5,2-1.2,3-2.1c1-0.9,1.8-1.9,2.4-2.9c0.6-1,1.1-2.3,1.7-4
				c0.2-0.8,0.5-1.4,0.8-1.7c0.3-0.3,0.7-0.4,1.1-0.4c0.6,0,1.1,0.2,1.3,0.6c0.3,0.4,0.4,1.2,0.4,2.2v13.5H467.1z"/>
			<path class="st1" d="M503.7,541.5v44.9c0,1,0.2,1.7,0.5,2.1c0.2,0.3,0.4,0.4,0.5,0.5c0.2,0.1,0.7,0.2,1.6,0.5
				c1.1,0.3,1.7,1,1.7,2.1c0,0.7-0.3,1.2-0.9,1.6c-0.4,0.3-1.2,0.5-2.2,0.5h-1.2h-15.4h-0.9c-0.8,0-1.5-0.2-1.9-0.5
				c-0.4-0.3-0.7-0.8-0.7-1.5c0-1,0.5-1.7,1.4-2.1c0.8-0.3,1.2-0.5,1.3-0.5c0.1-0.1,0.3-0.2,0.4-0.4c0.3-0.4,0.4-1.1,0.4-2v-38.3
				c0-0.9-0.1-1.5-0.4-1.9c-0.1-0.2-0.3-0.4-0.4-0.4c-0.1-0.1-0.6-0.2-1.3-0.5c-0.9-0.3-1.4-1-1.4-2.1c0-0.6,0.2-1.1,0.7-1.5
				c0.5-0.3,1.1-0.5,1.9-0.5h0.9H503.7z M514.3,568.1c2.1,0.4,3.8,0.8,4.9,1.2c1.1,0.4,2.2,1,3.1,1.8c1,0.8,1.7,1.7,2.2,2.8
				c0.5,1.1,0.8,2.3,0.8,3.5v7.9c0,0.8,0.2,1.2,0.7,1.2c0.2,0,0.3-0.1,0.5-0.2c0.1-0.1,0.3-0.3,0.5-0.7c0.6-0.9,1.2-1.3,1.8-1.3
				c0.4,0,0.8,0.2,1.2,0.7c0.4,0.5,0.6,0.9,0.6,1.4c0,0.8-0.3,1.8-1,2.9c-0.7,1.1-1.5,2.2-2.5,3c-0.9,0.8-2,1.4-3.1,1.8
				c-1.1,0.4-2.4,0.6-3.9,0.6c-3,0-5.4-1-7.1-2.9c-1.7-1.9-2.6-4.6-2.6-8v-6.4c0-1.4,0-2.3,0-2.5c-0.1-1-0.4-1.9-1-2.6
				c-0.7-0.9-1.6-1.4-2.9-1.6v-4.1c1.2-0.2,2.1-0.6,2.7-1.1c0.5-0.5,0.8-1,1-1.6c0.2-0.6,0.3-1.5,0.3-2.6v-10.1
				c0-1.6-0.3-2.8-0.8-3.6c-0.6-0.8-1.6-1.4-3.1-1.9v-4.2h0.9c2.6,0,4.7,0.1,6.5,0.3c2.7,0.3,5.1,1.2,7.2,2.9
				c3,2.4,4.5,5.7,4.5,10.1c0,3.6-1,6.5-3,8.8c-0.9,1-1.9,1.8-3,2.4C518.4,566.7,516.6,567.4,514.3,568.1z"/>
			<path class="st1" d="M551.3,593.7h-15.4H535c-0.8,0-1.5-0.2-1.9-0.5c-0.5-0.3-0.7-0.8-0.7-1.5c0-1,0.5-1.7,1.4-2.1
				c0.8-0.3,1.2-0.5,1.3-0.5c0.1-0.1,0.3-0.2,0.4-0.4c0.3-0.4,0.4-1.1,0.4-2v-38.3c0-0.9-0.1-1.5-0.4-1.9c-0.1-0.2-0.3-0.4-0.4-0.4
				c-0.1-0.1-0.6-0.2-1.3-0.5c-0.9-0.3-1.4-1-1.4-2.1c0-0.6,0.2-1.1,0.7-1.5c0.5-0.3,1.1-0.5,1.9-0.5h0.9h15.4h0.9
				c0.8,0,1.5,0.2,1.9,0.5c0.5,0.3,0.7,0.8,0.7,1.5c0,1-0.5,1.7-1.4,2.1c-0.8,0.3-1.2,0.5-1.3,0.5c-0.1,0.1-0.3,0.2-0.4,0.4
				c-0.3,0.4-0.4,1.1-0.4,1.9v38.3c0,0.9,0.1,1.5,0.4,2c0.1,0.2,0.3,0.4,0.4,0.4c0.1,0.1,0.6,0.2,1.3,0.5c0.9,0.3,1.4,1,1.4,2.1
				c0,0.6-0.2,1.1-0.7,1.5c-0.4,0.3-1.1,0.5-1.9,0.5H551.3z"/>
			<path class="st1" d="M577,541.5v52.2h-15.4h-0.9c-0.8,0-1.5-0.2-1.9-0.5c-0.4-0.3-0.7-0.8-0.7-1.5c0-1,0.5-1.7,1.4-2.1
				c0.8-0.3,1.2-0.5,1.3-0.5c0.1-0.1,0.3-0.2,0.4-0.4c0.3-0.4,0.4-1.1,0.4-2v-38.3c0-0.9-0.1-1.5-0.4-1.9c-0.1-0.2-0.3-0.4-0.4-0.4
				c-0.1-0.1-0.6-0.2-1.3-0.5c-0.9-0.3-1.4-1-1.4-2.1c0-0.6,0.2-1.1,0.7-1.5c0.5-0.3,1.1-0.5,1.9-0.5h0.9H577z M579.9,569.4v-4.4
				c1.3-0.7,2.3-1.5,3-2.3c0.6-0.8,1.1-2,1.4-3.4c0.2-1,0.4-1.6,0.7-2c0.3-0.4,0.7-0.6,1.3-0.6c0.7,0,1.2,0.3,1.5,1
				c0.2,0.3,0.2,1.1,0.2,2.3v14.6c0,1.2-0.1,2-0.4,2.5c-0.2,0.5-0.7,0.7-1.3,0.7c-0.5,0-0.9-0.2-1.2-0.5c-0.3-0.4-0.5-1-0.7-1.8
				c-0.4-1.8-1-3.1-1.7-4C582,570.3,581.1,569.7,579.9,569.4z M580.1,541.5H594v13.5c0,0.8-0.1,1.4-0.4,1.7
				c-0.3,0.4-0.7,0.5-1.3,0.5c-0.5,0-0.9-0.1-1.1-0.3c-0.2-0.2-0.4-0.7-0.7-1.4c-0.9-3-2.2-5.2-3.9-6.8c-1.7-1.6-3.9-2.5-6.6-2.8
				V541.5z M580.1,593.7v-4.1c1.5-0.3,2.7-0.6,3.7-1.1c1-0.5,2-1.2,3-2.1c1-0.9,1.8-1.9,2.4-2.9c0.6-1,1.1-2.3,1.7-4
				c0.3-0.8,0.5-1.4,0.8-1.7c0.3-0.3,0.7-0.4,1.1-0.4c0.6,0,1.1,0.2,1.3,0.6c0.3,0.4,0.4,1.2,0.4,2.2v13.5H580.1z"/>
		</g>
	</g>
	<g id="chariot">
		<path id="chariot_1_" class="st2" d="M516.9,262.2c-1.7-0.1-2.9-0.2-4.3-0.3c-1-0.1-1.1-1.4-0.7-2.8c1.5-4.6,5.7-10.3-1.9-11.3
			c-2.6-0.4-4.6-0.4-6.5-0.5c-4.5-0.3-7.3-0.6-7.3-6.2c0-22.9,1.4-50.9,1.4-73.8c0-5.4,0.9-9.5-6.5-9.8c-7.6-0.3-7.5-1.2-6.9-9.3
			c0.6-9,0.8-15.5,1.7-24.2c0.7-7.1,0-16.4,3.6-17.9c1.1-0.4,1.8-1.1,4.8-1.1c3.2,0,6.2,0.4,7.8-1.8c1.7-2.3,4.6-7.8,6.4-12.1
			c1.1-2.6,1.8-9.1-4.9-10c-2.1-0.3-7.2-0.6-7.2-0.6s0.6-30.8-0.7-34.1c-2-5.1-4.5-8.3-11.8-8.2c-90.2,0.4-181.2,0.4-271.2,0.8
			c-19.2,0.1-20.7,0.6-30,2.5c-10.1,2.1-26.3,5.4-39.7,9c-14,3.8-28.1,6.4-28.1,9.9c0,5.2,0.1,34.5,0.1,34.5l3.7,0.1
			c0,0-3.5,0.6-3.7,3.3c-0.3,4.7,0.3,6.8,3,6.7c3.7,0,5.4,0,8,0c0.7,0,0.2,11,0.3,17.1c0.7,37.3,7.8,73.4,20.8,108.7
			c5,13.5-2.1,23.7-17.3,27.9c-4.1,1.1-6.5,19.2-6.5,19.2s-5.7,3.3-7.2,5.6c-1,1.7-0.6,9.6-0.6,9.6l44.6,1.2
			c-1.7,3.6-3.2,6.9-4.5,9.8c-11.1,24.9,4.5,60.5,42.2,64.7c19.5,2.2,34-6.4,40.7-12.6c4.6-4.3,9.3-10.8,11.7-16.7
			c3.1-7.8,4.8-20.3,2-29.1c-0.8-9.5,5.5-11.4,13.1-12.6c2.6-0.4,8-0.7,10.7-0.6c22.3,0.6,61.9,1.5,89.3,2.6
			c0.2,0.2,0.4,0.3,0.6,0.5c-12.9,26.7-8.1,50.6,13.6,64.8c9.8,6.4,25.2,10.1,38,8.4C435,370.6,446,362,452,353
			c7.8-10.8,11.9-28.4,4.1-44.6c-2.3-4.7-0.2-7.8,5.8-7.7c11.5,0,10.6,0.4,20.2,0.4c9.1,0,13.4,0.7,15.1-1.8
			c1.5-2.2,5.4-10.5,6.4-12.2c2.3-3.9,2.4-6.4,11.2-6.4c2.4,0,5.5-10.3,6.4-14.8C521.8,262.4,518,262.3,516.9,262.2z M495.1,87
			c0,0,4.7,0.1,6.6,0.2c0.7-0.1-2.7,5.3-4.3,7.5c-1.2,0.3-8.1,0.1-8.1,0.1L495.1,87z M480.9,243.1c0,2.6-4.7,2.3-8.5,2.1
			c-6.2-0.2-7.1-1.3-6.4-4.9c0.2-1.3,1-3.4,1.3-4.6c3.3-12.4,5.8-25.3,8.7-37.8c0.6-2.7,2.2-7.6,5.7-7c0.1,0,0.2,0,0.2,0.1
			L480.9,243.1z M508.1,271.1c-2.5,0.1-4.5-0.9-4.5-2.1c0-1.2,1.9-2.2,4.4-2.3c2.5-0.1,4.5,0.9,4.5,2.1
			C512.5,270,510.6,271,508.1,271.1z"/>
		<g id="centre">
			<g id="ROUE">
				<g>
					<path id="BLANC" class="st3" d="M359.7,183.8l0.2-4.8l-0.2-4.8c2.1-0.9,4.2-1.8,6.2-2.8c0.6-0.3,1.2-0.6,1.8-0.9
						c-0.5-3.7-1.1-7.4-2.2-11c-0.4,0-0.7,0-1.1-0.1c-2.6-0.2-5.1-0.3-7.7-0.3l-1.7-4.5c-0.6-1.5-1.4-2.9-2-4.3
						c2.1-2.1,4.1-4.2,6-6.5c-1.9-3.3-3.9-6.4-6.3-9.3c-2.8,0.9-5.5,1.9-8.2,3l-3.2-3.5l-3.5-3.2c1.1-2.7,2.2-5.4,3-8.2
						c-2.5-2-5.1-3.7-7.8-5.3c-0.5-0.3-1-0.7-1.6-1c-0.1,0.1-0.1,0.1-0.2,0.2c-2.1,1.8-4.3,3.8-6.3,5.8c-1.4-0.7-2.9-1.4-4.3-2
						l-4.5-1.6c0-2.1-0.1-4.2-0.2-6.2c-0.1-0.8-0.1-1.7-0.2-2.5c-3.6-1-7.3-1.7-11-2.2c-0.6,1.1-1.1,2.2-1.6,3.3
						c-0.7,1.5-1.4,3.1-2.1,4.7l-4.8-0.2l-4.8,0.2c-0.6-1.6-1.3-3.1-2-4.6c-0.5-1.1-1.1-2.2-1.6-3.3c-3.7,0.5-7.4,1.1-11,2.2
						c-0.1,0.9-0.1,1.8-0.2,2.7c-0.1,2-0.2,4-0.2,6l-4.5,1.6c-1.5,0.6-2.9,1.4-4.3,2c-1.9-1.9-3.9-3.8-6-5.5
						c-0.2-0.1-0.3-0.3-0.5-0.5c-1.6,0.9-3.3,1.9-4.8,3c-1.5,1-3,2.1-4.5,3.3c0.9,2.8,1.9,5.5,3,8.2l-3.5,3.2l-3.2,3.5
						c-2.7-1.1-5.5-2.1-8.2-3c-1.8,2.3-3.4,4.7-4.9,7.2c-0.4,0.7-0.9,1.4-1.3,2.1c0.1,0.1,0.2,0.2,0.3,0.3c1.8,2.1,3.7,4.2,5.7,6.2
						c-0.7,1.4-1.4,2.9-2,4.3l-1.7,4.5c-2.3,0-4.5,0.1-6.7,0.2c-0.7,0-1.4,0.1-2.1,0.1c-1.1,3.6-1.7,7.3-2.2,11
						c0.9,0.5,1.8,0.9,2.8,1.3c1.7,0.8,3.5,1.6,5.2,2.3l-0.2,4.8l0.2,4.8c-1.8,0.7-3.6,1.5-5.3,2.4c-0.9,0.4-1.8,0.9-2.7,1.3
						c0.5,3.7,1.1,7.4,2.2,11c0.6,0,1.2,0.1,1.9,0.1c2.3,0.2,4.6,0.3,6.9,0.3l1.7,4.5c0.6,1.5,1.4,2.9,2,4.3
						c-2.1,2.1-4.1,4.2-5.9,6.4c0,0,0,0,0,0c0,0.1,0.1,0.1,0.1,0.2c1.8,3.2,3.9,6.3,6.1,9.1c2.8-0.9,5.5-1.9,8.2-3l3.2,3.5l3.5,3.2
						c-1.1,2.7-2.2,5.5-3,8.2c2.9,2.3,6.1,4.4,9.3,6.2c2.2-1.8,4.4-3.9,6.5-5.9c1.4,0.7,2.9,1.4,4.3,2l4.5,1.6
						c0,2.3,0.1,4.6,0.3,6.8c0,0.6,0.1,1.3,0.1,1.9c3.6,1,7.3,1.7,11,2.2c0.4-0.8,0.9-1.7,1.3-2.6c0.8-1.8,1.7-3.6,2.4-5.4l4.8,0.2
						l4.8-0.2c0.8,1.8,1.6,3.6,2.4,5.4c0.4,0.9,0.8,1.7,1.2,2.6c3.7-0.5,7.4-1.1,11-2.2c0.1-0.6,0.1-1.2,0.1-1.8
						c0.2-2.3,0.3-4.6,0.3-7l4.5-1.6c1.5-0.6,2.9-1.4,4.3-2c2.1,2.1,4.3,4.1,6.5,5.9c3.3-1.9,6.4-3.9,9.3-6.2
						c-0.9-2.8-1.9-5.5-3-8.2l3.5-3.2l3.2-3.5c2.7,1.1,5.5,2.1,8.2,3c2.3-2.9,4.4-6,6.3-9.3c-1.9-2.2-3.9-4.4-6-6.5
						c0.7-1.4,1.4-2.9,2-4.3l1.7-4.5c2.7,0,5.3-0.1,7.9-0.3c0.3,0,0.6,0,0.9-0.1c1-3.6,1.7-7.3,2.2-11c-0.6-0.3-1.1-0.6-1.7-0.8
						C363.9,185.7,361.8,184.7,359.7,183.8z M295.9,223.6c-24.5,0-44.4-19.9-44.4-44.4c0-24.5,19.9-44.4,44.4-44.4
						c24.5,0,44.4,19.9,44.4,44.4C340.3,203.7,320.4,223.6,295.9,223.6z"/>
					<path id="CONTOUR" class="st0" d="M304.5,250.8l-0.1-0.3c-0.4-0.7-0.7-1.4-1-2.1l-0.2-0.5c-0.9-1.8-1.6-3.5-2.3-5.1
						c0,0-3.3,0.2-4.5,0.2c-1.1,0-4.5-0.2-4.5-0.2c-0.6,1.5-1.4,3.2-2.3,5.1l-0.2,0.4c-0.4,0.7-0.7,1.5-1.1,2.2l-0.1,0.3l-0.3,0
						c-4.2-0.5-7.8-1.3-11.1-2.2l-0.3-0.1l0-0.3c0-0.5-0.1-0.9-0.1-1.3l0-0.6c-0.2-2.5-0.3-4.6-0.3-6.5l-4.2-1.5
						c-1-0.4-2-0.9-2.9-1.3c-0.4-0.2-0.8-0.4-1.2-0.6c-2.2,2.2-4.3,4.1-6.3,5.8l-0.2,0.2l-0.3-0.2c-3.5-2-6.6-4.1-9.4-6.3l-0.2-0.2
						l0.1-0.3c0.8-2.7,1.8-5.4,2.9-8l-3.3-3l-3-3.3c-2.6,1.1-5.3,2.1-8,2.9l-0.3,0.1l-0.2-0.2c-2.2-2.7-4.2-5.7-6.2-9.2
						c-0.1-0.1-0.1-0.1-0.1-0.2l-0.2-0.3l0.2-0.2c1.7-2,3.6-4.1,5.7-6.2c-0.2-0.4-0.4-0.8-0.6-1.1c-0.5-0.9-0.9-1.9-1.4-2.9
						l-1.6-4.2c-2,0-4-0.1-6.6-0.3l-0.7,0c-0.4,0-0.8,0-1.2-0.1l-0.3,0l-0.1-0.3c-1-3.3-1.7-6.8-2.2-11.1l0-0.3l0.3-0.1
						c0.7-0.4,1.4-0.7,2.1-1.1l0.5-0.3c1.9-0.9,3.5-1.6,5-2.3l-0.2-4.5l0.2-4.5c-1.6-0.6-3.2-1.4-5-2.2l-0.4-0.2
						c-0.8-0.4-1.6-0.8-2.3-1.1l-0.3-0.1l0-0.3c0.5-4.2,1.3-7.8,2.2-11.1l0.1-0.3l0.3,0c0.5,0,0.9-0.1,1.4-0.1l0.7,0
						c2.4-0.2,4.5-0.2,6.4-0.2l1.5-4.2c0.4-1,0.9-2,1.4-2.9c0.2-0.4,0.4-0.8,0.5-1.1c-2-2-3.9-4-5.5-6l-0.5-0.5l0.2-0.3
						c0.3-0.5,0.6-0.9,0.8-1.4c0.2-0.3,0.3-0.5,0.5-0.8c1.8-2.9,3.4-5.2,5-7.2l0.2-0.2l0.3,0.1c2.7,0.8,5.3,1.8,8,2.9l3-3.3l3.3-3
						c-1.1-2.6-2.1-5.3-2.9-8l-0.1-0.3l0.2-0.2c1.4-1.2,3-2.3,4.5-3.3c1.5-1,3.1-2,4.8-3l0.3-0.2l0.8,0.7c1.9,1.6,3.9,3.4,5.8,5.3
						c0.4-0.2,0.7-0.3,1.1-0.5c1-0.5,2-1,3-1.4l4.2-1.5c0-2.1,0.1-4.2,0.2-5.7l0-0.5c0-0.7,0.1-1.5,0.2-2.2l0-0.3l0.3-0.1
						c3.3-1,6.9-1.7,11.1-2.2l0.3,0l0.1,0.3c0.6,1.1,1.1,2.3,1.6,3.4c0.7,1.5,1.4,3,1.9,4.4c0,0,3.3-0.2,4.5-0.2
						c1.1,0,4.5,0.2,4.5,0.2c0.6-1.4,1.2-2.9,2-4.4c0.5-1.1,1-2.2,1.6-3.3l0.1-0.3l0.3,0c4.2,0.5,7.8,1.3,11.1,2.2l0.3,0.1l0,0.3
						c0.1,0.6,0.1,1.3,0.1,1.9l0,0.6c0.1,2.2,0.2,4.1,0.2,5.9l4.2,1.5c1.1,0.4,2.1,0.9,3.1,1.4c0.3,0.2,0.7,0.3,1,0.5
						c2.1-2.1,4.1-3.9,6.1-5.6l0.5-0.4l0.3,0.2c0.3,0.2,0.6,0.4,0.9,0.6c0.2,0.1,0.4,0.3,0.7,0.4c3.1,1.8,5.6,3.5,7.8,5.3l0.2,0.2
						l-0.1,0.3c-0.8,2.7-1.8,5.3-2.9,8l3.3,3l3,3.3c2.7-1.1,5.4-2.1,8-2.9l0.3-0.1l0.2,0.2c2.2,2.8,4.3,5.8,6.3,9.3l0.2,0.3
						l-0.2,0.2c-1.7,2.1-3.7,4.2-5.8,6.3c0.2,0.3,0.3,0.7,0.5,1c0.5,1,1,2,1.4,3.1l1.6,4.2c2.2,0,4.6,0.1,7.3,0.3l0.5,0
						c0.2,0,0.4,0,0.6,0l0.3,0l0.1,0.3c1,3.3,1.7,6.9,2.2,11.1l0,0.3l-0.3,0.1c-0.4,0.2-0.8,0.4-1.2,0.6l-0.6,0.3
						c-2,1-4,1.9-5.9,2.7l0.2,4.5l-0.2,4.5c1.9,0.8,3.9,1.7,6,2.7l0.6,0.3c0.4,0.2,0.7,0.4,1.1,0.5l0.3,0.1l0,0.3
						c-0.5,4.2-1.3,7.8-2.2,11.1l-0.1,0.3l-0.3,0c-0.2,0-0.3,0-0.5,0l-0.4,0c-2.9,0.2-5.3,0.3-7.6,0.3h0l-1.5,4.2
						c-0.4,1-0.9,2.1-1.4,3.1c-0.2,0.3-0.3,0.7-0.5,1c2.1,2.1,4.1,4.2,5.8,6.3l0.2,0.2l-0.2,0.3c-2,3.5-4.1,6.6-6.3,9.4l-0.2,0.2
						l-0.3-0.1c-2.7-0.9-5.4-1.8-8-2.9l-3,3.3l-3.3,3c1.1,2.6,2.1,5.3,2.9,8l0.1,0.3l-0.2,0.2c-2.8,2.2-5.9,4.3-9.4,6.3l-0.3,0.2
						l-0.2-0.2c-2-1.6-4.1-3.6-6.3-5.7c-0.4,0.2-0.7,0.4-1.1,0.5c-1,0.5-2,1-3,1.4l-4.2,1.5c0,2.1-0.1,4.3-0.3,6.7l0,0.7
						c0,0.4,0,0.7-0.1,1.1l0,0.3l-0.3,0.1c-3.3,1-6.9,1.7-11.1,2.2L304.5,250.8z M277.2,247.8c3.1,0.9,6.4,1.5,10.3,2
						c0.3-0.6,0.6-1.3,0.9-1.9l0.2-0.4c1-2,1.7-3.8,2.4-5.4l0.1-0.3c0,0,3.8,0.2,5.1,0.2c1.3,0,5.1-0.2,5.1-0.2l0.1,0.3
						c0.7,1.7,1.5,3.5,2.4,5.4l0.2,0.5c0.3,0.6,0.6,1.2,0.9,1.8c3.9-0.5,7.3-1.2,10.3-2.1c0-0.2,0-0.5,0-0.7c0-0.2,0-0.5,0-0.7
						c0.2-2.5,0.3-4.8,0.3-6.9l0-0.3l4.8-1.8c1-0.4,1.9-0.9,2.9-1.3c0.5-0.2,0.9-0.5,1.4-0.7l0.3-0.1l0.2,0.2
						c2.2,2.2,4.3,4.1,6.2,5.7c3.3-1.9,6.1-3.8,8.7-5.8c-0.8-2.6-1.8-5.3-2.9-7.9l-0.1-0.3l3.8-3.4l3.4-3.7l0.3,0.1
						c2.6,1.1,5.2,2.1,7.9,2.9c2-2.6,4-5.4,5.9-8.7c-1.7-2-3.6-4.1-5.7-6.2l-0.2-0.2l0.1-0.3c0.2-0.4,0.4-0.9,0.6-1.3
						c0.5-1,1-2,1.4-3l1.8-4.8l0.7,0c2.3,0,4.7-0.1,7.5-0.3l0.4,0c0,0,0.1,0,0.1,0c0.9-3,1.5-6.4,2-10.3c-0.3-0.1-0.5-0.3-0.8-0.4
						l-0.6-0.3c-2.2-1.1-4.3-2-6.2-2.8l-0.3-0.1l0.2-5.1l-0.2-5.1l0.3-0.1c2-0.8,4.1-1.7,6.2-2.8l0.6-0.3c0.3-0.1,0.6-0.3,0.9-0.4
						c-0.5-3.9-1.2-7.3-2-10.3c-0.1,0-0.2,0-0.3,0l-0.5,0c-2.8-0.2-5.1-0.3-7.3-0.3l-0.7,0l-1.8-4.8c-0.4-1-0.9-2-1.4-3
						c-0.2-0.4-0.4-0.9-0.6-1.3l-0.1-0.3l0.2-0.2c2.1-2.1,4-4.2,5.7-6.2c-1.9-3.3-3.8-6.1-5.9-8.7c-2.6,0.8-5.3,1.8-7.9,2.9
						l-0.3,0.1l-3.4-3.8l-3.8-3.4l0.1-0.3c1.1-2.6,2.1-5.2,2.9-7.9c-2.1-1.7-4.5-3.3-7.5-5c-0.2-0.1-0.5-0.3-0.7-0.4
						c-0.2-0.1-0.4-0.2-0.6-0.4c-2,1.7-4.1,3.6-6.2,5.7l-0.2,0.2l-0.3-0.1c-0.4-0.2-0.9-0.4-1.3-0.6c-1-0.5-2-1-3-1.4l-4.8-1.8
						l0-0.3c0-1.8-0.1-3.8-0.2-6.2l0-0.6c0-0.5-0.1-1.1-0.1-1.6c-3.1-0.9-6.5-1.5-10.3-2c-0.5,1-1,2-1.5,3c-0.8,1.6-1.4,3.2-2.1,4.7
						l-0.1,0.3c0,0-3.8-0.2-5.1-0.2c-1.3,0-5.1,0.2-5.1,0.2l-0.1-0.3c-0.6-1.5-1.3-3-2-4.6c-0.5-1-1-2-1.5-3
						c-3.9,0.5-7.3,1.2-10.3,2c0,0.6-0.1,1.3-0.1,1.9l0,0.5c-0.1,1.6-0.2,3.8-0.2,6l0,0.3l-4.8,1.8c-1,0.4-2,0.9-2.9,1.4
						c-0.5,0.2-0.9,0.4-1.4,0.7l-0.3,0.1l-0.2-0.2c-2-2-4-3.8-5.9-5.5c-0.1-0.1-0.2-0.2-0.3-0.2c-1.6,0.9-3.1,1.8-4.5,2.8
						c-1.5,1-2.9,2-4.2,3.1c0.9,2.7,1.8,5.3,2.9,7.9l0.1,0.3l-3.8,3.4l-3.4,3.7l-0.3-0.1c-2.6-1.1-5.3-2.1-7.9-2.9
						c-1.5,1.9-3,4.1-4.7,6.9c-0.2,0.3-0.3,0.5-0.5,0.8c-0.2,0.4-0.4,0.7-0.7,1.1l0,0c1.7,2,3.6,4.1,5.7,6.1l0.2,0.2l-0.1,0.3
						c-0.2,0.5-0.5,1-0.7,1.4c-0.5,0.9-0.9,1.9-1.3,2.9l-1.8,4.8l-0.6,0c-1.9,0-3.9,0.1-6.4,0.2l-0.7,0c-0.3,0-0.7,0-1,0.1
						c-0.9,3.1-1.6,6.4-2.1,10.3c0.7,0.3,1.3,0.7,2,1l0.4,0.2c1.9,0.9,3.6,1.7,5.2,2.3l0.3,0.1l-0.2,5.1l0.2,5.1l-0.3,0.1
						c-1.6,0.7-3.3,1.4-5.3,2.4l-0.5,0.3c-0.6,0.3-1.2,0.6-1.8,0.9c0.5,3.9,1.2,7.2,2.1,10.3c0.3,0,0.6,0,0.8,0.1l0.7,0
						c2.5,0.2,4.6,0.3,6.5,0.3l0.7,0l1.8,4.8c0.4,0.9,0.9,1.9,1.3,2.8c0.2,0.5,0.5,1,0.7,1.5l0.1,0.3l-0.2,0.2
						c-2.1,2.1-4.1,4.2-5.7,6.2c1.9,3.3,3.8,6.1,5.8,8.7c2.7-0.9,5.4-1.8,7.9-2.9l0.3-0.1l3.4,3.8l3.8,3.4l-0.1,0.3
						c-1.1,2.6-2.1,5.2-2.9,7.9c2.6,2.1,5.5,4,8.7,5.8c1.9-1.6,4-3.5,6.2-5.7l0.2-0.2l0.3,0.1c0.5,0.2,1,0.5,1.5,0.7
						c0.9,0.4,1.9,0.9,2.8,1.3l4.8,1.7l0,0.3c0,2,0.1,4.2,0.3,6.8l0,0.6C277.2,247.1,277.2,247.5,277.2,247.8z M295.9,224
						c-24.7,0-44.9-20.1-44.9-44.9c0-24.7,20.1-44.9,44.9-44.9c24.7,0,44.9,20.1,44.9,44.9C340.8,203.9,320.6,224,295.9,224z
						 M295.9,135.2c-24.2,0-43.9,19.7-43.9,43.9c0,24.2,19.7,43.9,43.9,43.9c24.2,0,43.9-19.7,43.9-43.9
						C339.9,154.9,320.1,135.2,295.9,135.2z"/>
				</g>
				<g>
					<g id="CERCLE_DETAILS">
						<path id="CERCLE" class="st0" d="M271.6,136.8l-1.4-2.4l-0.7,0.4l1.4,2.4L271.6,136.8z M273,136l-1.3-2.5l-0.8,0.4l1.4,2.4
							L273,136z M275.8,134.6l-1.2-2.6l-0.8,0.4l1.2,2.5L275.8,134.6z M270.3,137.6l-1.5-2.4l-0.7,0.5l1.5,2.4L270.3,137.6z
							 M262.7,143.4l-1.9-2.1l-0.6,0.6l2,2L262.7,143.4z M265.1,141.3l-1.8-2.2l-0.7,0.5l1.8,2.1L265.1,141.3z M263.6,142.6l0.3-0.3
							l-1.8-2.1l-0.3,0.3l-0.3,0.3l1.9,2.1L263.6,142.6z M268.9,138.5l-1.6-2.3l-0.7,0.5l1.6,2.3L268.9,138.5z M277.3,134l-1.1-2.6
							l-0.8,0.3l1.1,2.6L277.3,134z M266.4,140.3l-1.7-2.2l-0.7,0.5l1.7,2.2L266.4,140.3z M267.6,139.4l-1.6-2.3l-0.7,0.5l1.7,2.3
							L267.6,139.4z M274.4,135.3l-1.2-2.5l-0.8,0.4l1.3,2.5L274.4,135.3z M289.4,130.7l-0.4-2.8l-0.8,0.1l0.4,2.8L289.4,130.7z
							 M291,130.5l-0.3-2.8l-0.9,0.1l0.3,2.8L291,130.5z M294.1,130.3l-0.1-2.8l-0.9,0l0.2,2.8L294.1,130.3z M287.8,130.9l-0.5-2.8
							l-0.8,0.2l0.5,2.8L287.8,130.9z M295.7,130.2l0-2.8l-0.9,0l0.1,2.8L295.7,130.2z M280.2,132.9l-0.9-2.7l-0.8,0.3l1,2.6
							L280.2,132.9z M278.7,133.4l-1-2.6l-0.8,0.3l1,2.6L278.7,133.4z M281.7,132.4l-0.8-2.7l-0.8,0.3l0.9,2.7L281.7,132.4z
							 M286.3,131.2l-0.6-2.7l-0.8,0.2l0.6,2.7L286.3,131.2z M284.4,131.7l0.4-0.1l-0.6-2.7l-0.4,0.1l-0.4,0.1l0.7,2.7L284.4,131.7z
							 M283.2,132l-0.7-2.7l-0.8,0.2l0.8,2.7L283.2,132z M257.4,149.2l-2.2-1.7l-0.5,0.7l2.2,1.7L257.4,149.2z M249.4,164.4
							l-2.7-0.9l-0.3,0.8l2.7,0.8L249.4,164.4z M261.6,144.5l-2-2l-0.6,0.6l2,2L261.6,144.5z M248.2,169l-2.7-0.6l-0.2,0.8l2.8,0.5
							L248.2,169z M251,160l-2.6-1.1l-0.3,0.8l2.6,1.1L251,160z M249.9,162.9l-2.7-0.9l-0.3,0.8l2.7,0.9L249.9,162.9z M250.3,161.8
							l0.1-0.4l-2.6-1l-0.2,0.4l-0.1,0.4l2.6,1L250.3,161.8z M248.5,167.5l-2.7-0.7l-0.2,0.8l2.7,0.6L248.5,167.5z M247.2,175.2
							l-2.8-0.2l-0.1,0.9l2.8,0.2L247.2,175.2z M247.8,170.6l-2.8-0.5l-0.1,0.8l2.8,0.4L247.8,170.6z M247.1,176.8l-2.8-0.1l0,0.9
							l2.8,0.1L247.1,176.8z M247.4,173.7l-2.8-0.3l-0.1,0.9l2.8,0.3L247.4,173.7z M247.6,172.1l-2.8-0.4l-0.1,0.8l2.8,0.4
							L247.6,172.1z M248.9,165.9l-2.7-0.8L246,166l2.7,0.7L248.9,165.9z M258.4,147.9l-2.2-1.8l-0.5,0.7l2.2,1.8L258.4,147.9z
							 M297.3,127.5l-0.9,0l0,2.8l0.8,0L297.3,127.5z M256.5,150.4l-2.3-1.7l-0.5,0.7l2.3,1.6L256.5,150.4z M259.4,146.8l-2.1-1.9
							l-0.6,0.6l2.1,1.8L259.4,146.8z M260.5,145.6l-2-1.9l-0.6,0.6l2.1,1.9L260.5,145.6z M253.1,155.8l-2.5-1.4l-0.4,0.8l2.5,1.3
							L253.1,155.8z M255.6,151.7l-2.3-1.6l-0.5,0.7l2.3,1.5L255.6,151.7z M251.7,158.6l-2.5-1.2l-0.4,0.8l2.6,1.1L251.7,158.6z
							 M252.4,157.2l-2.5-1.3l-0.4,0.8l2.5,1.2L252.4,157.2z M254.7,153l-2.4-1.5l-0.4,0.7l2.4,1.5L254.7,153z M253.9,154.4
							l-2.4-1.4l-0.4,0.7l2.4,1.4L253.9,154.4z M304,128l-0.8-0.1l-0.4,2.8l0.8,0.1L304,128z M341.9,161.8l0.1,0.4l2.6-1l-0.1-0.4
							l-0.2-0.4l-2.6,1L341.9,161.8z M332.2,146.2l2.1-1.9l-0.6-0.6l-2,1.9L332.2,146.2z M340.2,157.9l2.5-1.2l-0.4-0.8l-2.5,1.3
							L340.2,157.9z M339.4,156.5l2.5-1.3l-0.4-0.8l-2.5,1.4L339.4,156.5z M341.5,160.8l2.6-1.1l-0.3-0.8l-2.6,1.1L341.5,160.8z
							 M340.8,159.3l2.6-1.1l-0.4-0.8l-2.5,1.2L340.8,159.3z M337.9,153.7l2.4-1.5l-0.5-0.7l-2.4,1.5L337.9,153.7z M337,152.4
							l2.3-1.5l-0.5-0.7l-2.3,1.6L337,152.4z M334.3,148.6l2.2-1.8l-0.5-0.7l-2.2,1.8L334.3,148.6z M333.2,147.4l2.1-1.8l-0.6-0.6
							l-2.1,1.9L333.2,147.4z M335.2,149.8l2.2-1.7l-0.5-0.7l-2.2,1.7L335.2,149.8z M336.2,151.1l2.3-1.6l-0.5-0.7l-2.3,1.7
							L336.2,151.1z M338.7,155.1l2.4-1.4l-0.4-0.7l-2.4,1.4L338.7,155.1z M344.8,174.5l2.8-0.3l-0.1-0.9l-2.8,0.3L344.8,174.5z
							 M345,176.1l2.8-0.2l-0.1-0.9l-2.8,0.2L345,176.1z M342.5,163.7l2.7-0.9l-0.3-0.8l-2.7,0.9L342.5,163.7z M344.7,172.9l2.8-0.4
							l-0.1-0.8l-2.8,0.4L344.7,172.9z M345.1,179.2h2.8l0-0.9l-2.8,0L345.1,179.2z M345,177.6l2.8-0.1l0-0.9l-2.8,0.1L345,177.6z
							 M343.5,166.7l2.7-0.7l-0.2-0.8l-2.7,0.8L343.5,166.7z M343,165.2l2.7-0.8l-0.3-0.8l-2.7,0.9L343,165.2z M344.2,169.8l2.8-0.5
							l-0.2-0.8L344,169L344.2,169.8z M344.4,171.3l2.8-0.4l-0.1-0.8l-2.8,0.5L344.4,171.3z M343.8,168.3l2.7-0.6l-0.2-0.8l-2.7,0.7
							L343.8,168.3z M311.2,132.6l0.9-2.7l-0.8-0.3l-0.8,2.7L311.2,132.6z M299,127.5l-0.9,0l-0.1,2.8l0.8,0L299,127.5z
							 M308.2,131.8l0.7-2.7l-0.4-0.1l-0.4-0.1l-0.7,2.7l0.4,0.1L308.2,131.8z M310.5,129.5l-0.8-0.2l-0.7,2.7l0.8,0.2L310.5,129.5z
							 M314.2,133.7l1-2.6l-0.8-0.3l-1,2.6L314.2,133.7z M312.7,133.2l1-2.6l-0.8-0.3l-0.9,2.7L312.7,133.2z M315.6,134.3l1.1-2.6
							l-0.8-0.3l-1.1,2.6L315.6,134.3z M300.7,127.6l-0.9-0.1l-0.2,2.8l0.8,0.1L300.7,127.6z M307.3,128.7l-0.8-0.2l-0.6,2.7
							l0.8,0.2L307.3,128.7z M302.3,127.8l-0.9-0.1l-0.3,2.8l0.8,0.1L302.3,127.8z M247.1,178.4l-2.8,0l0,0.9h2.8L247.1,178.4z
							 M305.6,128.3l-0.8-0.2l-0.5,2.8l0.8,0.1L305.6,128.3z M323.9,138.9l1.6-2.3l-0.7-0.5l-1.6,2.3L323.9,138.9z M327.7,141.8
							l1.8-2.1l-0.7-0.5l-1.8,2.2L327.7,141.8z M326.4,140.8l1.7-2.2l-0.7-0.5l-1.7,2.2L326.4,140.8z M328.5,142.6l0.3,0.3l1.9-2.1
							l-0.3-0.3l-0.3-0.3l-1.8,2.1L328.5,142.6z M325.2,139.9l1.7-2.3l-0.7-0.5l-1.6,2.3L325.2,139.9z M317.1,135l1.2-2.5l-0.8-0.4
							l-1.2,2.6L317.1,135z M330,143.9l1.9-2l-0.6-0.6l-1.9,2.1L330,143.9z M319.9,136.4l1.4-2.4l-0.7-0.4l-1.3,2.5L319.9,136.4z
							 M331.1,145l2-2l-0.6-0.6l-2,2L331.1,145z M318.5,135.7l1.3-2.5l-0.8-0.4l-1.2,2.5L318.5,135.7z M321.2,137.2l1.5-2.4
							l-0.7-0.4l-1.4,2.4L321.2,137.2z M322.6,138.1l1.5-2.4l-0.7-0.5l-1.5,2.4L322.6,138.1z M292.5,130.4l-0.2-2.8l-0.9,0.1
							l0.2,2.8L292.5,130.4z M323.9,219.5l1.6,2.3l0.7-0.5l-1.6-2.3L323.9,219.5z M322.6,220.3l1.5,2.4l0.7-0.5l-1.6-2.3
							L322.6,220.3z M319.9,222l1.4,2.5l0.7-0.4l-1.4-2.4L319.9,222z M321.2,221.2l1.4,2.4l0.7-0.4l-1.5-2.4L321.2,221.2z
							 M331.1,213.4l2,2l0.6-0.6l-2-1.9L331.1,213.4z M318.8,222.5l-0.4,0.2l1.3,2.5l0.4-0.2l0.4-0.2l-1.3-2.5L318.8,222.5z
							 M317.1,223.4l1.2,2.5l0.8-0.4l-1.3-2.5L317.1,223.4z M328.8,215.5l1.9,2.1l0.6-0.6l-1.9-2.1L328.8,215.5z M330,214.5l1.9,2
							l0.6-0.6l-2-2L330,214.5z M325.2,218.5l1.7,2.3l0.7-0.5l-1.7-2.2L325.2,218.5z M327.6,216.6l1.8,2.1l0.7-0.6l-1.9-2.1
							L327.6,216.6z M326.4,217.6l1.7,2.2l0.7-0.5l-1.8-2.2L326.4,217.6z M315.6,224.1l1.1,2.6l0.8-0.3l-1.2-2.6L315.6,224.1z
							 M302,227.8l0.3,2.8l0.8-0.1l-0.4-2.8L302,227.8z M303.5,227.6l0.4,2.8l0.8-0.1l-0.5-2.8L303.5,227.6z M314.2,224.7l1,2.6
							l0.8-0.3l-1.1-2.6L314.2,224.7z M298.8,228.1l0.2,2.8l0.9-0.1l-0.2-2.8L298.8,228.1z M300.4,227.9l0.2,2.8l0.9-0.1l-0.3-2.8
							L300.4,227.9z M305.1,227.3l0.5,2.8l0.8-0.2l-0.6-2.8L305.1,227.3z M311.2,225.7l0.9,2.7l0.8-0.3l-0.9-2.7L311.2,225.7z
							 M306.6,227l0.6,2.7l0.8-0.2l-0.7-2.7L306.6,227z M312.7,225.2l1,2.6l0.8-0.3l-1-2.6L312.7,225.2z M309.7,226.2l0.8,2.7
							l0.8-0.2l-0.8-2.7L309.7,226.2z M308.2,226.6l0.7,2.7l0.8-0.2l-0.7-2.7L308.2,226.6z M343.8,190.1l2.7,0.6l0.2-0.8l-2.7-0.6
							L343.8,190.1z M297.2,228.1l0.1,2.8l0.9,0l-0.1-2.8L297.2,228.1z M343.5,191.7l2.7,0.7l0.2-0.8l-2.7-0.7L343.5,191.7z
							 M344.2,188.6l2.8,0.5l0.2-0.8l-2.8-0.5L344.2,188.6z M343,193.2l2.7,0.8l0.2-0.8l-2.7-0.8L343,193.2z M342.5,194.7l2.7,0.9
							l0.3-0.8l-2.7-0.8L342.5,194.7z M344.7,185.1l0,0.4l2.8,0.4l0.1-0.4l0-0.4l-2.8-0.3L344.7,185.1z M345,180.8l2.8,0.1l0-0.9
							l-2.8,0L345,180.8z M345,182.4l2.8,0.2l0-0.9l-2.8-0.1L345,182.4z M342,196.2l2.6,1l0.3-0.8l-2.7-0.9L342,196.2z M344.8,183.9
							l2.8,0.3l0.1-0.9l-2.8-0.2L344.8,183.9z M344.4,187l2.8,0.5l0.1-0.8l-2.8-0.4L344.4,187z M341.4,197.6l2.6,1.1l0.3-0.8l-2.6-1
							L341.4,197.6z M336.4,207l-0.2,0.3l2.3,1.6l0.2-0.3l0.2-0.3l-2.3-1.6L336.4,207z M332.2,212.2l2.1,1.9l0.6-0.6l-2.1-1.9
							L332.2,212.2z M337,206l2.3,1.5l0.5-0.7l-2.4-1.5L337,206z M334.2,209.8l2.2,1.8l0.5-0.7l-2.2-1.7L334.2,209.8z M333.2,211
							l2.1,1.8l0.6-0.7l-2.2-1.8L333.2,211z M335.2,208.6l2.2,1.7l0.5-0.7l-2.3-1.7L335.2,208.6z M337.9,204.7l2.4,1.5l0.4-0.7
							l-2.4-1.4L337.9,204.7z M340.8,199.1l2.6,1.1l0.3-0.8l-2.6-1.1L340.8,199.1z M340.2,200.5l2.5,1.2l0.4-0.8l-2.5-1.2
							L340.2,200.5z M338.7,203.3l2.4,1.4l0.4-0.7l-2.5-1.3L338.7,203.3z M339.4,201.9l2.5,1.3l0.4-0.8l-2.5-1.3L339.4,201.9z
							 M281.7,226l-0.8,2.7l0.8,0.2l0.8-2.7L281.7,226z M253.9,204l-2.4,1.4l0.4,0.7l2.4-1.5L253.9,204z M254.7,205.3l-2.4,1.5
							l0.5,0.7l2.3-1.5L254.7,205.3z M255.8,207l-0.2-0.3l-2.3,1.6l0.2,0.3l0.2,0.3l2.3-1.6L255.8,207z M253.1,202.6l-2.5,1.3
							l0.4,0.7l2.4-1.4L253.1,202.6z M251,198.4l-2.6,1.1l0.3,0.8l2.6-1.1L251,198.4z M252.3,201.2l-2.5,1.3l0.4,0.8l2.5-1.3
							L252.3,201.2z M251.6,199.8l-2.5,1.2l0.4,0.8l2.5-1.2L251.6,199.8z M261.6,213.9l-2,2l0.6,0.6l1.9-2L261.6,213.9z
							 M259.4,211.6l-2.1,1.9l0.6,0.6l2.1-1.9L259.4,211.6z M257.4,209.2l-2.2,1.7l0.5,0.7l2.2-1.8L257.4,209.2z M258.4,210.4
							l-2.2,1.8l0.6,0.7l2.1-1.8L258.4,210.4z M256.5,207.9l-2.3,1.7l0.5,0.7l2.2-1.7L256.5,207.9z M260.5,212.8l-2,1.9l0.6,0.6l2-2
							L260.5,212.8z M247.4,185.1l0-0.4l-2.8,0.3l0,0.4l0.1,0.4l2.8-0.4L247.4,185.1z M247.8,187.8l-2.8,0.5l0.2,0.8l2.8-0.5
							L247.8,187.8z M247.6,186.2l-2.8,0.4l0.1,0.8l2.8-0.5L247.6,186.2z M247.1,181.5l-2.8,0.1l0,0.9l2.8-0.2L247.1,181.5z
							 M247.2,183.1l-2.8,0.2l0.1,0.9l2.8-0.3L247.2,183.1z M248.9,192.4l-2.7,0.8l0.2,0.8l2.7-0.8L248.9,192.4z M249.9,195.4
							l-2.7,0.9l0.3,0.8l2.6-1L249.9,195.4z M249.4,193.9l-2.7,0.8l0.3,0.8l2.7-0.9L249.4,193.9z M250.4,196.9l-2.6,1l0.3,0.8
							l2.6-1.1L250.4,196.9z M248.1,189.4l-2.7,0.6l0.2,0.8l2.7-0.6L248.1,189.4z M248.5,190.9l-2.7,0.7l0.2,0.8l2.7-0.7
							L248.5,190.9z M265.1,217.1l-1.8,2.2l0.7,0.5l1.7-2.2L265.1,217.1z M282.5,229.1l0.8,0.2l0.7-2.7l-0.8-0.2L282.5,229.1z
							 M278.7,224.9l-1,2.6l0.8,0.3l1-2.6L278.7,224.9z M280.2,225.5l-0.9,2.7l0.8,0.3l0.9-2.7L280.2,225.5z M262.7,215l-1.9,2.1
							l0.6,0.6l1.9-2.1L262.7,215z M285.7,229.9l0.8,0.2l0.5-2.8l-0.8-0.2L285.7,229.9z M284.1,229.5l0.8,0.2l0.6-2.7l-0.8-0.2
							L284.1,229.5z M292.3,230.8l0.9,0.1l0.2-2.8l-0.8,0L292.3,230.8z M287.3,230.2l0.8,0.1l0.4-2.8l-0.8-0.1L287.3,230.2z
							 M294,230.9l0.9,0l0.1-2.8l-0.8,0L294,230.9z M290.7,230.7l0.9,0.1l0.2-2.8l-0.8-0.1L290.7,230.7z M289,230.5l0.9,0.1l0.3-2.8
							l-0.8-0.1L289,230.5z M247.1,180l-2.8,0l0,0.9l2.8-0.1L247.1,180z M267.6,219l-1.6,2.3l0.7,0.5l1.6-2.3L267.6,219z
							 M266.3,218.1l-1.7,2.2l0.7,0.5l1.7-2.3L266.3,218.1z M268.9,219.9l-1.6,2.3l0.7,0.5l1.5-2.4L268.9,219.9z M263.9,216.1
							l-1.8,2.1l0.7,0.6l1.8-2.1L263.9,216.1z M277.2,224.4l-1.1,2.6l0.8,0.3l1-2.6L277.2,224.4z M296.1,228.1l-0.4,0l0,2.8h0.8
							l0-2.8L296.1,228.1z M274.4,223l-1.3,2.5l0.8,0.4l1.2-2.5L274.4,223z M275.8,223.7l-1.2,2.6l0.8,0.3l1.1-2.6L275.8,223.7z
							 M270.2,220.7l-1.5,2.4l0.7,0.4l1.4-2.4L270.2,220.7z M273.3,222.5l-0.4-0.2l-1.3,2.5l0.4,0.2l0.4,0.2l1.3-2.5L273.3,222.5z
							 M271.6,221.6l-1.4,2.4l0.7,0.4l1.4-2.5L271.6,221.6z"/>
					</g>
				</g>
			</g>
			<g id="BLE">
				<path class="st4" d="M296.2,163.9c0-10.3,4.2-5.6,9.2-10.4c1.1,6.8-1.9,11.4-9.2,12.8c-7.3-1.4-10.3-6-9.2-12.8
					C292,158.3,296.2,153.7,296.2,163.9L296.2,163.9z"/>
				<path class="st4" d="M296.2,142.2c5,5.6,5.5,9,0,14.5C290.8,151.2,291.2,147.8,296.2,142.2L296.2,142.2z"/>
				<path class="st4" d="M296.2,185.8c0-10.3,4.2-5.6,9.2-10.5c1.1,6.8-1.9,11.4-9.2,12.8c-7.3-1.4-10.3-6-9.2-12.8
					C292,180.2,296.2,175.6,296.2,185.8L296.2,185.8z"/>
				<path class="st4" d="M296.2,174.9c0-10.3,4.2-5.6,9.2-10.5c1.1,6.8-1.9,11.4-9.2,12.8c-7.3-1.4-10.3-6-9.2-12.8
					C292,169.3,296.2,164.6,296.2,174.9L296.2,174.9z"/>
			</g>
			<g id="BIERES">
				<path id="BIERE_G" class="st4" d="M292,206c-0.3-0.6-0.5-1.1-0.8-1.6c-3.6-6.3-7.2-12.6-10.7-18.9c-1.1-2-2.6-3.5-4.6-4.7
					c-1.2-0.7-2.3-1.7-3.2-2.8c-1.4-1.7-2.6-3.6-3.8-5.5c-1-1.4-1.8-3-2.7-4.4c-0.5-0.8-1-1.6-1.3-2.1c-1.7,0.9-3.2,1.7-4.9,2.6
					c0.6,1,1.2,2.3,1.9,3.6c1.1,2.5,2.3,4.9,3.4,7.3c1.1,2.5,1.7,4.9,1.7,7.6c0,1.5,0.7,3.2,1.5,4.6c2.8,5.1,5.8,10.2,8.7,15.3
					c1,1.8,2.1,3.6,3.2,5.3c0.7,1.1,1.7,1.3,2.8,0.7c2.7-1.5,5.3-2.9,8-4.4C292.3,208.1,292.5,207.2,292,206z M271.6,182.5
					c0.4-0.2,1-0.1,1.5-0.1c-0.2,0.4-0.5,0.8-0.8,1.3c-0.6-0.1-1.1-0.2-1.6-0.3C271,183.1,271.3,182.6,271.6,182.5z M268.1,182.4
					c-1.7-3.6-3.5-7.1-5.3-10.9c2.1,3.7,4.1,7.2,6.1,10.6C268.6,182.2,268.4,182.3,268.1,182.4z M281,210.4c-3-5.2-6-10.4-8.9-15.7
					c-1.1-2-2.3-4-3.2-6.2c-0.4-0.9-0.2-2-0.2-3c1.1,2.4,2,4.6,3.2,6.7c3.2,5.8,6.6,11.6,9.9,17.4c0.3,0.5,0.6,0.9,0.9,1.5
					C281.8,211.5,281.4,211.1,281,210.4z"/>
				<path id="BIERE" class="st4" d="M301.4,208.8c2.7,1.4,5.4,2.9,8,4.4c1.1,0.6,2.1,0.4,2.8-0.7c1.1-1.7,2.2-3.5,3.2-5.3
					c2.9-5.1,5.9-10.2,8.7-15.3c0.8-1.4,1.5-3.1,1.5-4.6c0-2.7,0.6-5.1,1.7-7.6c1.1-2.4,2.2-4.8,3.4-7.3c0.7-1.3,1.3-2.6,1.9-3.6
					c-1.7-0.9-3.2-1.7-4.9-2.6c-0.3,0.5-0.8,1.3-1.3,2.1c-0.9,1.5-1.8,3-2.7,4.4c-1.2,1.9-2.4,3.7-3.8,5.5c-0.9,1.1-2,2.1-3.2,2.8
					c-2,1.2-3.5,2.6-4.6,4.7c-3.5,6.3-7.2,12.6-10.7,18.9c-0.3,0.5-0.6,1.1-0.8,1.6C300,207.2,300.2,208.1,301.4,208.8z
					 M321.8,183.5c-0.5,0.1-0.9,0.2-1.6,0.3c-0.3-0.5-0.6-0.9-0.8-1.3c0.5,0,1-0.1,1.5,0.1C321.2,182.6,321.5,183.1,321.8,183.5z
					 M323.6,182.1c2-3.5,3.9-6.9,6.1-10.6c-1.9,3.8-3.6,7.4-5.3,10.9C324.1,182.3,323.9,182.2,323.6,182.1z M309.7,211.1
					c0.4-0.6,0.7-1,0.9-1.5c3.3-5.8,6.7-11.6,9.9-17.4c1.2-2.1,2.1-4.3,3.2-6.7c-0.1,1,0.1,2.2-0.2,3c-0.9,2.1-2,4.1-3.2,6.2
					c-2.9,5.2-6,10.4-8.9,15.7C311.1,211.1,310.7,211.5,309.7,211.1z"/>
			</g>
		</g>
		<g id="détails">
			<g>
				<g>
					<g>
						<path class="st4" d="M176.7,358.2c0,0-26.5-13-22.8-38.7c1.1-7.6,6-13.1,7.8-15.4c0,0-4.7,6.6-6.3,18.3
							C152.5,343.2,176.7,358.2,176.7,358.2z"/>
						<path class="st4" d="M383.6,345.2c-7-3.7-9.7-13.9-7.2-19.3c3.2-1.1,6.4-1.1,7.2-0.3c0.1,1.9-0.1,4.2,1.2,7.9
							c1.2,3.5,3.5,5.7,3.3,6.8C386.8,342.1,385.6,343.6,383.6,345.2z"/>
						<path class="st4" d="M421,351.9c-6.9,3.7-15,3.7-21.2,2.1c-1.8-0.5-2.7-0.9-2.6-1.6c0.5-1.7,1.6-3.9,2-5.6
							c0.6-1,3.6,0.8,9.5,0.7c5-0.1,6.8-2.1,7.8-1.5C418.6,348.4,419.5,349.3,421,351.9z"/>
						<path class="st4" d="M192.8,346.6c-0.4-0.8,0.2-3.4,0.8-5.5c0.5-1,4,1.1,9,0.7c4.1-0.3,4.6-1.1,7.2-1.9c0.8,0.1,1.7,2,3.9,6.2
							c-2.5,1.2-7.5,2.6-10.9,2.4C198.7,348.3,194.9,347.7,192.8,346.6z"/>
						<path class="st4" d="M179.5,339.7c-7.2-4.3-9.6-11.6-9-16.8c0.8-0.6,1.3-0.8,2.2-1.3c2-0.9,4.1-1.1,5.1-0.4
							c0.4,0.3,0.5,4.2,2,7.2c1.7,4,4.8,5.9,4.1,6.9C182.5,336.6,180.8,338.4,179.5,339.7z"/>
						<path class="st4" d="M221,296c-4.7-2.7-10.2-6.6-22.3-8.3c12.5,0.9,20.8,6.3,23.7,8.2c5,3.3,8.9,7.9,12.1,14.4
							c0.3,0.5-1-1.1-1.5-1.8C231.5,306.4,227.4,299.8,221,296z"/>
						<path class="st4" d="M234,320.5c-2.8-8.6-10.1-14.8-11.8-15.9c-2.7-1.3-5.4-1.9-4.4-0.3c0.1,0.2,0.3,0.5,1.3,1.5
							c1.8,1.8,4.7,4.6,6,6.1c1.6,2,0,0-0.1,0c1.8,2.3,4.1,5.9,4.6,7.2c-3.9,0.1-5.3-0.1-9.2,0c0.8,2,0.4,4.1,0.3,6.1
							c-0.1,2.1-1.1,4.1-1.3,5.5c3.8,1.9,7.5,4,10.7,5.5c3.5,7.9-13.4,20.9-13,20.7c10.9-4,15.7-14.7,16.4-17
							C234,338.2,236.9,326.7,234,320.5z"/>
						<path class="st4" d="M195,329.8c8.9-0.2,9.9-4.1,6.6-10.6C206.4,321.1,206.9,333.4,195,329.8z"/>
						<path class="st4" d="M238.5,296.6c-2.4-0.7-4.1,0.3-6.5-1.5c-5.7-4.5-10.4-11.2-28.7-14.6c-11.2-2.1-21.3,1.4-27.3,4.1
							c0.7-0.4,9.2-5.6,23.1-5.8C223.7,278.4,238,296.9,238.5,296.6z"/>
						<path class="st3" d="M446.7,299.5c-5.1-5.1-19-18.2-40.1-17.9c-14.9,0.2-24,5.9-24.7,6.4c6.4-2.9,17.2-6.8,29.3-4.5
							c19.7,3.8,24.9,10.1,31,15.2C444.4,300.5,442.4,296,446.7,299.5C446.7,299.5,446.7,299.5,446.7,299.5z"/>
						<g>
							<polygon class="st3" points="361.8,289.8 245.6,286.6 243.9,284.8 363.5,288.2 							"/>
						</g>
						<g>
							<path class="st3" d="M489,293.4l-38.2-1l-1.4-2l42,1.2c0,0-0.6,0.6-0.9,0.9C489.6,293.2,489,293.4,489,293.4z"/>
						</g>
						<path class="st3" d="M409.5,292.9c0,0,17.8,1.2,29.4,15.3c11.6,14.1,5.9,33.6,5.9,33.6s8.9-14.9-3-32.4
							C433.5,297,415.7,292.1,409.5,292.9z"/>
						<path class="st4" d="M407.7,323.6l-0.7,1l0.6,5.5c0,0,1.2,0,2.1,0.2c0,0,0,0,0.1,0c0.2,3.1,0.1,4.9-2.4,5.6c0,0,0,0.1,0,0.1
							C414.3,334.3,412,325.6,407.7,323.6z"/>
						<g>
							<g>
								<path class="st3" d="M441.2,324.2c-1.9-10.3-11.3-17-20.5-21.9c1.2,1.3,1.9,2.9,2,4.8c10.2,4.8,14.6,17.7,14.6,17.7
									s-0.7-0.9-1.3-0.8c-0.7,0.1-10.9,2.8-10.9,3.2c0.9,4.8-1.2,9.1-0.9,9.4c4.2,3.8,9.3,4.4,9.3,4.4s3.3,0.6,3.9-1.2
									c0.3-0.8,0.3-3.1,0.3-3.1l0.5-0.1c0,0,0.2,4,0.2,4.3c0.5,11.3-15.9,23.6-15.5,23.4C445.5,353,442.1,329.1,441.2,324.2z"/>
							</g>
							<g>
								<path class="st3" d="M365.6,308.8C365.6,308.9,365.6,308.9,365.6,308.8C365.6,308.9,365.5,308.9,365.6,308.8z"/>
							</g>
							<g>
								<path class="st3" d="M364.4,314C364.4,314.1,364.4,314.1,364.4,314C364.4,314.1,364.4,314,364.4,314z"/>
							</g>
						</g>
						<path class="st3" d="M162.8,284.7l-39.6-1.1c0,0-0.4,0-0.3-0.2c0.1-0.1,1-0.5,1-0.5l41.1,1L162.8,284.7z"/>
					</g>
				</g>
			</g>
			<g>
				<g>
					<path class="st4" d="M128,65.5c-2.3,0.1-4.7,0.1-7,0.2c-1.7,0.1-0.4,0.7-0.4,1.4c0,1-1.2,2.2-0.7,3.1c-0.2,1.1,0.1,3,0.1,5.6
						c0.2,0.3,0.7,7.7,1,8.1c0.8-0.2,2.7-6.9,3.3-7.1c-1.6-0.9,1.5-4.5,1.6-6.3c0.2-0.1,0.4-0.1,0.6-0.2c-0.9-2.1,2.5-1,2.1-2.7
						c0-0.2,0.5-0.5,0.7-0.8c0.1,0.3,0.2,0.6,0.3,0.9c0.1,0.3,0.3,0.6,0.5,0.8c1.2-1.7,3.3-0.5,4.7-1.4c0.4-0.3,0.8-0.7,1.1-1.1
						c-0.5-0.2-1-0.6-1.5-0.6C132.3,65.4,130.2,65.5,128,65.5z"/>
					<path class="st4" d="M141.7,65.2c-0.5-0.1-1.1,0-2.2,0c-0.3,0-1.2,0.1-2,0.3c-0.2,0-0.4,0.6-0.3,0.9c0.1,0.3,0.7,0.7,0.8,0.6
						c1.1-1,2-1.6,2.5,0.5c0.1,0.3,0.7,0.5,1.1,0.8c0.3-0.7,0.8-1.4,1-2.2C142.7,65.9,142.1,65.3,141.7,65.2z"/>
				</g>
			</g>
			<path class="st3" d="M141.9,80.7c0.1,2.4-2.2,4.5-5,4.6c-2.8,0.1-5.2-1.8-5.2-4.3c-0.1-2.4,2.2-4.5,5-4.5
				C139.5,76.4,141.9,78.3,141.9,80.7z"/>
			<polygon class="st3" points="461.5,65.2 469.7,69 470.5,93.7 471,84.6 470.4,68.2 			"/>
			<path class="st3" d="M468.4,123.7c0,0-7,80.8-20.9,121.2c0,0,10.7-33,13.9-55.7C465.7,159.9,468.4,123.7,468.4,123.7z"/>
			<polygon class="st3" points="150.7,64.5 454.7,64 261.9,66.5 188.8,67.4 159,66.7 142.4,65.2 			"/>
			<polygon class="st3" points="205,50.8 446.5,50.4 293.3,52.5 235.3,53.2 211.6,52.6 198.4,51.4 			"/>
			<path class="st3" d="M458.8,81.4c0.1,2.6-2.3,4.8-5.3,4.9c-3,0.1-5.5-2-5.6-4.6c-0.1-2.6,2.3-4.8,5.3-4.9
				C456.2,76.7,458.7,78.8,458.8,81.4z"/>
		</g>
	</g>
</g>
</svg>
